<?xml version="1.0" encoding="us-ascii" standalone="no"?><svg xmlns="http://www.w3.org/2000/svg" xmlns:xlink="http://www.w3.org/1999/xlink" contentStyleType="text/css" height="497px" preserveAspectRatio="none" style="width:445px;height:497px;background:#FFFFFF;" version="1.1" viewBox="0 0 445 497" width="445px" zoomAndPan="magnify"><defs/><g><text fill="#000000" font-family="sans-serif" font-size="14" font-weight="bold" lengthAdjust="spacing" textLength="140" x="145.5" y="23.5352">Clean DDD - Query</text><!--cluster infrastructure--><g id="cluster_infrastructure"><path d="M8.5,43.4883 L108.5,43.4883 A3.75,3.75 0 0 1 111,45.9883 L118,65.9766 L435.5,65.9766 A2.5,2.5 0 0 1 438,68.4766 L438,247.9883 A2.5,2.5 0 0 1 435.5,250.4883 L8.5,250.4883 A2.5,2.5 0 0 1 6,247.9883 L6,45.9883 A2.5,2.5 0 0 1 8.5,43.4883 " fill="none" style="stroke:#000000;stroke-width:1.5;"/><line style="stroke:#000000;stroke-width:1.5;" x1="6" x2="118" y1="65.9766" y2="65.9766"/><text fill="#000000" font-family="sans-serif" font-size="14" font-weight="bold" lengthAdjust="spacing" textLength="99" x="10" y="59.0234">infrastructure</text></g><!--cluster application--><g id="cluster_application"><path d="M78.5,274.4883 L159.5,274.4883 A3.75,3.75 0 0 1 162,276.9883 L169,296.9766 L427.5,296.9766 A2.5,2.5 0 0 1 430,299.4766 L430,487.6083 A2.5,2.5 0 0 1 427.5,490.1083 L78.5,490.1083 A2.5,2.5 0 0 1 76,487.6083 L76,276.9883 A2.5,2.5 0 0 1 78.5,274.4883 " fill="none" style="stroke:#000000;stroke-width:1.5;"/><line style="stroke:#000000;stroke-width:1.5;" x1="76" x2="169" y1="296.9766" y2="296.9766"/><text fill="#000000" font-family="sans-serif" font-size="14" font-weight="bold" lengthAdjust="spacing" textLength="80" x="80" y="290.0234">application</text></g><!--class Message--><g id="elem_Message"><rect codeLine="6" fill="#F1F1F1" height="48" id="Message" rx="2.5" ry="2.5" style="stroke:#181818;stroke-width:0.5;" width="91" x="22.5" y="186.4883"/><ellipse cx="37.5" cy="202.4883" fill="#ADD1B2" rx="11" ry="11" style="stroke:#181818;stroke-width:1.0;"/><path d="M40.4731,208.1313 Q39.8921,208.4302 39.2529,208.5796 Q38.6138,208.729 37.9082,208.729 Q35.4014,208.729 34.0815,207.0771 Q32.7617,205.4253 32.7617,202.3042 Q32.7617,199.1748 34.0815,197.5229 Q35.4014,195.8711 37.9082,195.8711 Q38.6138,195.8711 39.2612,196.0205 Q39.9087,196.1699 40.4731,196.4688 L40.4731,199.1914 Q39.8423,198.6104 39.2488,198.3406 Q38.6553,198.0708 38.0244,198.0708 Q36.6797,198.0708 35.9949,199.1375 Q35.3101,200.2041 35.3101,202.3042 Q35.3101,204.396 35.9949,205.4626 Q36.6797,206.5293 38.0244,206.5293 Q38.6553,206.5293 39.2488,206.2595 Q39.8423,205.9897 40.4731,205.4087 Z " fill="#000000"/><text fill="#000000" font-family="sans-serif" font-size="14" lengthAdjust="spacing" textLength="59" x="51.5" y="207.7793">Message</text><line style="stroke:#181818;stroke-width:0.5;" x1="23.5" x2="112.5" y1="218.4883" y2="218.4883"/><line style="stroke:#181818;stroke-width:0.5;" x1="23.5" x2="112.5" y1="226.4883" y2="226.4883"/></g><!--class Controller--><g id="elem_Controller"><rect codeLine="8" fill="#F1F1F1" height="48" id="Controller" rx="2.5" ry="2.5" style="stroke:#181818;stroke-width:0.5;" width="102" x="149" y="186.4883"/><ellipse cx="164" cy="202.4883" fill="#ADD1B2" rx="11" ry="11" style="stroke:#181818;stroke-width:1.0;"/><path d="M166.9731,208.1313 Q166.3921,208.4302 165.7529,208.5796 Q165.1138,208.729 164.4082,208.729 Q161.9014,208.729 160.5815,207.0771 Q159.2617,205.4253 159.2617,202.3042 Q159.2617,199.1748 160.5815,197.5229 Q161.9014,195.8711 164.4082,195.8711 Q165.1138,195.8711 165.7612,196.0205 Q166.4087,196.1699 166.9731,196.4688 L166.9731,199.1914 Q166.3423,198.6104 165.7488,198.3406 Q165.1553,198.0708 164.5244,198.0708 Q163.1797,198.0708 162.4949,199.1375 Q161.8101,200.2041 161.8101,202.3042 Q161.8101,204.396 162.4949,205.4626 Q163.1797,206.5293 164.5244,206.5293 Q165.1553,206.5293 165.7488,206.2595 Q166.3423,205.9897 166.9731,205.4087 Z " fill="#000000"/><text fill="#000000" font-family="sans-serif" font-size="14" lengthAdjust="spacing" textLength="70" x="178" y="207.7793">Controller</text><line style="stroke:#181818;stroke-width:0.5;" x1="150" x2="250" y1="218.4883" y2="218.4883"/><line style="stroke:#181818;stroke-width:0.5;" x1="150" x2="250" y1="226.4883" y2="226.4883"/></g><!--class JpaRepository--><g id="elem_JpaRepository"><rect codeLine="10" fill="#F1F1F1" height="48" id="JpaRepository" rx="2.5" ry="2.5" style="stroke:#181818;stroke-width:0.5;" width="126" x="291" y="78.4883"/><ellipse cx="306" cy="94.4883" fill="#B4A7E5" rx="11" ry="11" style="stroke:#181818;stroke-width:1.0;"/><path d="M301.9277,90.2534 L301.9277,88.0952 L309.3071,88.0952 L309.3071,90.2534 L306.8418,90.2534 L306.8418,98.3301 L309.3071,98.3301 L309.3071,100.4883 L301.9277,100.4883 L301.9277,98.3301 L304.3931,98.3301 L304.3931,90.2534 Z " fill="#000000"/><text fill="#000000" font-family="sans-serif" font-size="14" font-style="italic" lengthAdjust="spacing" textLength="94" x="320" y="99.7793">JpaRepository</text><line style="stroke:#181818;stroke-width:0.5;" x1="292" x2="416" y1="110.4883" y2="110.4883"/><line style="stroke:#181818;stroke-width:0.5;" x1="292" x2="416" y1="118.4883" y2="118.4883"/></g><!--class RepositoryImpl--><g id="elem_RepositoryImpl"><rect codeLine="12" fill="#F1F1F1" height="48" id="RepositoryImpl" rx="2.5" ry="2.5" style="stroke:#181818;stroke-width:0.5;" width="135" x="286.5" y="186.4883"/><ellipse cx="301.5" cy="202.4883" fill="#ADD1B2" rx="11" ry="11" style="stroke:#181818;stroke-width:1.0;"/><path d="M304.4731,208.1313 Q303.8921,208.4302 303.2529,208.5796 Q302.6138,208.729 301.9082,208.729 Q299.4014,208.729 298.0815,207.0771 Q296.7617,205.4253 296.7617,202.3042 Q296.7617,199.1748 298.0815,197.5229 Q299.4014,195.8711 301.9082,195.8711 Q302.6138,195.8711 303.2612,196.0205 Q303.9087,196.1699 304.4731,196.4688 L304.4731,199.1914 Q303.8423,198.6104 303.2488,198.3406 Q302.6553,198.0708 302.0244,198.0708 Q300.6797,198.0708 299.9949,199.1375 Q299.3101,200.2041 299.3101,202.3042 Q299.3101,204.396 299.9949,205.4626 Q300.6797,206.5293 302.0244,206.5293 Q302.6553,206.5293 303.2488,206.2595 Q303.8423,205.9897 304.4731,205.4087 Z " fill="#000000"/><text fill="#000000" font-family="sans-serif" font-size="14" lengthAdjust="spacing" textLength="103" x="315.5" y="207.7793">RepositoryImpl</text><line style="stroke:#181818;stroke-width:0.5;" x1="287.5" x2="420.5" y1="218.4883" y2="218.4883"/><line style="stroke:#181818;stroke-width:0.5;" x1="287.5" x2="420.5" y1="226.4883" y2="226.4883"/></g><!--class Queries--><g id="elem_Queries"><rect codeLine="19" fill="#F1F1F1" height="56.6211" id="Queries" rx="2.5" ry="2.5" style="stroke:#181818;stroke-width:0.5;" width="92" x="92" y="309.4883"/><ellipse cx="107" cy="329.7988" fill="#B4A7E5" rx="11" ry="11" style="stroke:#181818;stroke-width:1.0;"/><path d="M102.9277,325.564 L102.9277,323.4058 L110.3071,323.4058 L110.3071,325.564 L107.8418,325.564 L107.8418,333.6406 L110.3071,333.6406 L110.3071,335.7988 L102.9277,335.7988 L102.9277,333.6406 L105.3931,333.6406 L105.3931,325.564 Z " fill="#000000"/><text fill="#000000" font-family="sans-serif" font-size="12" font-style="italic" lengthAdjust="spacing" textLength="64" x="119" y="326.0898">&#171;InputPort&#187;</text><text fill="#000000" font-family="sans-serif" font-size="14" font-style="italic" lengthAdjust="spacing" textLength="53" x="124.5" y="342.1563">Queries</text><line style="stroke:#181818;stroke-width:0.5;" x1="93" x2="183" y1="350.1094" y2="350.1094"/><line style="stroke:#181818;stroke-width:0.5;" x1="93" x2="183" y1="358.1094" y2="358.1094"/></g><!--class Dto--><g id="elem_Dto"><rect codeLine="21" fill="#F1F1F1" height="48" id="Dto" rx="2.5" ry="2.5" style="stroke:#181818;stroke-width:0.5;" width="56" x="219" y="313.7983"/><ellipse cx="234" cy="329.7983" fill="#ADD1B2" rx="11" ry="11" style="stroke:#181818;stroke-width:1.0;"/><path d="M236.9731,335.4413 Q236.3921,335.7402 235.7529,335.8896 Q235.1138,336.039 234.4082,336.039 Q231.9014,336.039 230.5815,334.3871 Q229.2617,332.7353 229.2617,329.6142 Q229.2617,326.4848 230.5815,324.8329 Q231.9014,323.1811 234.4082,323.1811 Q235.1138,323.1811 235.7612,323.3305 Q236.4087,323.4799 236.9731,323.7788 L236.9731,326.5014 Q236.3423,325.9204 235.7488,325.6506 Q235.1553,325.3808 234.5244,325.3808 Q233.1797,325.3808 232.4949,326.4475 Q231.8101,327.5141 231.8101,329.6142 Q231.8101,331.706 232.4949,332.7726 Q233.1797,333.8393 234.5244,333.8393 Q235.1553,333.8393 235.7488,333.5695 Q236.3423,333.2997 236.9731,332.7187 Z " fill="#000000"/><text fill="#000000" font-family="sans-serif" font-size="14" lengthAdjust="spacing" textLength="24" x="248" y="335.0893">Dto</text><line style="stroke:#181818;stroke-width:0.5;" x1="220" x2="274" y1="345.7983" y2="345.7983"/><line style="stroke:#181818;stroke-width:0.5;" x1="220" x2="274" y1="353.7983" y2="353.7983"/></g><!--class QueriesImpl--><g id="elem_QueriesImpl"><rect codeLine="23" fill="#F1F1F1" height="48" id="QueriesImpl" rx="2.5" ry="2.5" style="stroke:#181818;stroke-width:0.5;" width="115" x="195.5" y="426.1083"/><ellipse cx="210.5" cy="442.1083" fill="#ADD1B2" rx="11" ry="11" style="stroke:#181818;stroke-width:1.0;"/><path d="M213.4731,447.7513 Q212.8921,448.0502 212.2529,448.1996 Q211.6138,448.349 210.9082,448.349 Q208.4014,448.349 207.0815,446.6971 Q205.7617,445.0453 205.7617,441.9242 Q205.7617,438.7948 207.0815,437.1429 Q208.4014,435.4911 210.9082,435.4911 Q211.6138,435.4911 212.2612,435.6405 Q212.9087,435.7899 213.4731,436.0888 L213.4731,438.8114 Q212.8423,438.2304 212.2488,437.9606 Q211.6553,437.6908 211.0244,437.6908 Q209.6797,437.6908 208.9949,438.7575 Q208.3101,439.8241 208.3101,441.9242 Q208.3101,444.016 208.9949,445.0826 Q209.6797,446.1493 211.0244,446.1493 Q211.6553,446.1493 212.2488,445.8795 Q212.8423,445.6097 213.4731,445.0287 Z " fill="#000000"/><text fill="#000000" font-family="sans-serif" font-size="14" lengthAdjust="spacing" textLength="83" x="224.5" y="447.3993">QueriesImpl</text><line style="stroke:#181818;stroke-width:0.5;" x1="196.5" x2="309.5" y1="458.1083" y2="458.1083"/><line style="stroke:#181818;stroke-width:0.5;" x1="196.5" x2="309.5" y1="466.1083" y2="466.1083"/></g><!--class Repository--><g id="elem_Repository"><rect codeLine="25" fill="#F1F1F1" height="56.6211" id="Repository" rx="2.5" ry="2.5" style="stroke:#181818;stroke-width:0.5;" width="105" x="309.5" y="309.4883"/><ellipse cx="324.5" cy="329.7988" fill="#B4A7E5" rx="11" ry="11" style="stroke:#181818;stroke-width:1.0;"/><path d="M320.4277,325.564 L320.4277,323.4058 L327.8071,323.4058 L327.8071,325.564 L325.3418,325.564 L325.3418,333.6406 L327.8071,333.6406 L327.8071,335.7988 L320.4277,335.7988 L320.4277,333.6406 L322.8931,333.6406 L322.8931,325.564 Z " fill="#000000"/><text fill="#000000" font-family="sans-serif" font-size="12" font-style="italic" lengthAdjust="spacing" textLength="74" x="338" y="326.0898">&#171;OutputPort&#187;</text><text fill="#000000" font-family="sans-serif" font-size="14" font-style="italic" lengthAdjust="spacing" textLength="73" x="338.5" y="342.1563">Repository</text><line style="stroke:#181818;stroke-width:0.5;" x1="310.5" x2="413.5" y1="350.1094" y2="350.1094"/><line style="stroke:#181818;stroke-width:0.5;" x1="310.5" x2="413.5" y1="358.1094" y2="358.1094"/></g><!--reverse link Message to Controller--><g id="link_Message_Controller"><path codeLine="15" d="M119.89,210.4883 C131.44,210.4883 136.99,210.4883 148.54,210.4883 " fill="none" id="Message-backto-Controller" style="stroke:#181818;stroke-width:1.0;"/><polygon fill="#181818" points="113.89,210.4883,122.89,214.4883,118.89,210.4883,122.89,206.4883,113.89,210.4883" style="stroke:#181818;stroke-width:1.0;"/></g><!--reverse link JpaRepository to RepositoryImpl--><g id="link_JpaRepository_RepositoryImpl"><path codeLine="16" d="M354,132.7483 C354,150.4183 354,168.6183 354,186.2783 " fill="none" id="JpaRepository-backto-RepositoryImpl" style="stroke:#181818;stroke-width:1.0;"/><polygon fill="#181818" points="354,126.7483,350,135.7483,354,131.7483,358,135.7483,354,126.7483" style="stroke:#181818;stroke-width:1.0;"/></g><!--link Queries to Dto--><g id="link_Queries_Dto"><path codeLine="28" d="M184.41,337.7983 C195.82,337.7983 201.23,337.7983 212.64,337.7983 " fill="none" id="Queries-to-Dto" style="stroke:#181818;stroke-width:1.0;"/><polygon fill="#181818" points="218.64,337.7983,209.64,333.7983,213.64,337.7983,209.64,341.7983,218.64,337.7983" style="stroke:#181818;stroke-width:1.0;"/></g><!--link Controller to Dto--><g id="link_Controller_Dto"><path codeLine="29" d="M208.73,234.7683 C217.17,257.2683 227.7824,285.5606 236.2124,308.0306 " fill="none" id="Controller-to-Dto" style="stroke:#181818;stroke-width:1.0;"/><polygon fill="#181818" points="238.32,313.6483,238.9038,303.8167,236.5637,308.9669,231.4135,306.6268,238.32,313.6483" style="stroke:#181818;stroke-width:1.0;"/></g><!--reverse link Queries to QueriesImpl--><g id="link_Queries_QueriesImpl"><path codeLine="30" d="M179.7114,378.8072 C198.7414,397.0572 210.44,408.2883 228.53,425.6383 " fill="none" id="Queries-backto-QueriesImpl" style="stroke:#181818;stroke-width:1.0;"/><polygon fill="none" points="166.72,366.3483,175.5584,383.1376,183.8643,374.4767,166.72,366.3483" style="stroke:#181818;stroke-width:1.0;"/></g><!--link Controller to Queries--><g id="link_Controller_Queries"><path codeLine="31" d="M188.48,234.7683 C178.05,255.8583 165.3201,281.5802 154.2801,303.9002 " fill="none" id="Controller-to-Queries" style="stroke:#181818;stroke-width:1.0;"/><polygon fill="#181818" points="151.62,309.2783,159.1956,302.9846,153.8368,304.7965,152.0248,299.4377,151.62,309.2783" style="stroke:#181818;stroke-width:1.0;"/></g><!--reverse link Repository to QueriesImpl--><g id="link_Repository_QueriesImpl"><path codeLine="33" d="M330.562,370.6154 C312.522,388.8654 293.34,408.2883 276.19,425.6383 " fill="none" id="Repository-backto-QueriesImpl" style="stroke:#181818;stroke-width:1.0;"/><polygon fill="#181818" points="334.78,366.3483,325.6082,369.9369,331.265,369.9042,331.2977,375.561,334.78,366.3483" style="stroke:#181818;stroke-width:1.0;"/></g><!--reverse link Controller to RepositoryImpl--><!--reverse link Repository to RepositoryImpl--><g id="link_Repository_RepositoryImpl"><path codeLine="38" d="M359.0971,291.3146 C357.6771,268.9946 356.83,255.8583 355.49,234.7683 " fill="none" id="Repository-backto-RepositoryImpl" style="stroke:#181818;stroke-width:1.0;"/><polygon fill="none" points="360.24,309.2783,365.085,290.9336,353.1093,291.6955,360.24,309.2783" style="stroke:#181818;stroke-width:1.0;"/></g><!--link RepositoryImpl to Dto--><g id="link_RepositoryImpl_Dto"><path codeLine="40" d="M324.35,234.8683 C313.55,244.1183 301.63,255.2183 292,266.4883 C279.57,281.0283 271.0055,294.0811 262.7155,308.3411 " fill="none" id="RepositoryImpl-to-Dto" style="stroke:#181818;stroke-width:1.0;"/><polygon fill="#181818" points="259.7,313.5283,267.6814,307.7579,262.2129,309.2057,260.7652,303.7372,259.7,313.5283" style="stroke:#181818;stroke-width:1.0;"/></g><!--SRC=[XLAxReGm4Epz5UwkClGHeZcQYnJbqKOfBBE05MDRzbhHwP9_3qwuO1p4KNfsPcTcEGo8rj-LfLLSOnXL8SnO2iMzPwtalUCZ8IXH0Jqgu9esJKCPVGxWpeHOBjvv3rJgpd6FBWWC3kY5qEdx4Q4Fu7qSkNoHvFLeD3gZ5BW_G6e4rt41zDxo5x36IpJkd14Nu3HQ5S49Ngyl4d6ce4DMPmQBsLHEpCHPiF-fAtDB0znQ9GL7QVGSVyaJovBWQLMTj0tuP1pMTPQhGPEzpAnhp4mpAQYg7WEkTAVfn4zntS-Sx8VOHWfEY_VwsvZUagu-6QCRG7I_9z-Q3vsjc9cR4PApf6XwaCCWsnRqhTE-_ewzRVyVYyMrZRJrc7Xt2RdbOQFRRm00]--></g></svg>