<?xml version="1.0" encoding="us-ascii" standalone="no"?><svg xmlns="http://www.w3.org/2000/svg" xmlns:xlink="http://www.w3.org/1999/xlink" contentStyleType="text/css" height="728px" preserveAspectRatio="none" style="width:891px;height:728px;background:#FFFFFF;" version="1.1" viewBox="0 0 891 728" width="891px" zoomAndPan="magnify"><defs/><g><text fill="#000000" font-family="sans-serif" font-size="14" font-weight="bold" lengthAdjust="spacing" textLength="170" x="353.5" y="23.5352">Clean DDD - Command</text><!--cluster infrastructure--><g id="cluster_infrastructure"><path d="M8.5,43.4883 L108.5,43.4883 A3.75,3.75 0 0 1 111,45.9883 L118,65.9766 L881.5,65.9766 A2.5,2.5 0 0 1 884,68.4766 L884,247.9883 A2.5,2.5 0 0 1 881.5,250.4883 L8.5,250.4883 A2.5,2.5 0 0 1 6,247.9883 L6,45.9883 A2.5,2.5 0 0 1 8.5,43.4883 " fill="none" style="stroke:#000000;stroke-width:1.5;"/><line style="stroke:#000000;stroke-width:1.5;" x1="6" x2="118" y1="65.9766" y2="65.9766"/><text fill="#000000" font-family="sans-serif" font-size="14" font-weight="bold" lengthAdjust="spacing" textLength="99" x="10" y="59.0234">infrastructure</text></g><!--cluster application--><g id="cluster_application"><path d="M181.5,274.4883 L262.5,274.4883 A3.75,3.75 0 0 1 265,276.9883 L272,296.9766 L686.5,296.9766 A2.5,2.5 0 0 1 689,299.4766 L689,487.6083 A2.5,2.5 0 0 1 686.5,490.1083 L181.5,490.1083 A2.5,2.5 0 0 1 179,487.6083 L179,276.9883 A2.5,2.5 0 0 1 181.5,274.4883 " fill="none" style="stroke:#000000;stroke-width:1.5;"/><line style="stroke:#000000;stroke-width:1.5;" x1="179" x2="272" y1="296.9766" y2="296.9766"/><text fill="#000000" font-family="sans-serif" font-size="14" font-weight="bold" lengthAdjust="spacing" textLength="80" x="183" y="290.0234">application</text></g><!--cluster domain--><g id="cluster_domain"><path d="M320.5,514.1083 L375.5,514.1083 A3.75,3.75 0 0 1 378,516.6083 L385,536.5966 L807.5,536.5966 A2.5,2.5 0 0 1 810,539.0966 L810,718.6083 A2.5,2.5 0 0 1 807.5,721.1083 L320.5,721.1083 A2.5,2.5 0 0 1 318,718.6083 L318,516.6083 A2.5,2.5 0 0 1 320.5,514.1083 " fill="none" style="stroke:#000000;stroke-width:1.5;"/><line style="stroke:#000000;stroke-width:1.5;" x1="318" x2="385" y1="536.5966" y2="536.5966"/><text fill="#000000" font-family="sans-serif" font-size="14" font-weight="bold" lengthAdjust="spacing" textLength="54" x="322" y="529.6434">domain</text></g><!--class Message--><g id="elem_Message"><rect codeLine="6" fill="#F1F1F1" height="48" id="Message" rx="2.5" ry="2.5" style="stroke:#181818;stroke-width:0.5;" width="91" x="22.5" y="186.4883"/><ellipse cx="37.5" cy="202.4883" fill="#ADD1B2" rx="11" ry="11" style="stroke:#181818;stroke-width:1.0;"/><path d="M40.4731,208.1313 Q39.8921,208.4302 39.2529,208.5796 Q38.6138,208.729 37.9082,208.729 Q35.4014,208.729 34.0815,207.0771 Q32.7617,205.4253 32.7617,202.3042 Q32.7617,199.1748 34.0815,197.5229 Q35.4014,195.8711 37.9082,195.8711 Q38.6138,195.8711 39.2612,196.0205 Q39.9087,196.1699 40.4731,196.4688 L40.4731,199.1914 Q39.8423,198.6104 39.2488,198.3406 Q38.6553,198.0708 38.0244,198.0708 Q36.6797,198.0708 35.9949,199.1375 Q35.3101,200.2041 35.3101,202.3042 Q35.3101,204.396 35.9949,205.4626 Q36.6797,206.5293 38.0244,206.5293 Q38.6553,206.5293 39.2488,206.2595 Q39.8423,205.9897 40.4731,205.4087 Z " fill="#000000"/><text fill="#000000" font-family="sans-serif" font-size="14" lengthAdjust="spacing" textLength="59" x="51.5" y="207.7793">Message</text><line style="stroke:#181818;stroke-width:0.5;" x1="23.5" x2="112.5" y1="218.4883" y2="218.4883"/><line style="stroke:#181818;stroke-width:0.5;" x1="23.5" x2="112.5" y1="226.4883" y2="226.4883"/></g><!--class Controller--><g id="elem_Controller"><rect codeLine="8" fill="#F1F1F1" height="48" id="Controller" rx="2.5" ry="2.5" style="stroke:#181818;stroke-width:0.5;" width="102" x="149" y="186.4883"/><ellipse cx="164" cy="202.4883" fill="#ADD1B2" rx="11" ry="11" style="stroke:#181818;stroke-width:1.0;"/><path d="M166.9731,208.1313 Q166.3921,208.4302 165.7529,208.5796 Q165.1138,208.729 164.4082,208.729 Q161.9014,208.729 160.5815,207.0771 Q159.2617,205.4253 159.2617,202.3042 Q159.2617,199.1748 160.5815,197.5229 Q161.9014,195.8711 164.4082,195.8711 Q165.1138,195.8711 165.7612,196.0205 Q166.4087,196.1699 166.9731,196.4688 L166.9731,199.1914 Q166.3423,198.6104 165.7488,198.3406 Q165.1553,198.0708 164.5244,198.0708 Q163.1797,198.0708 162.4949,199.1375 Q161.8101,200.2041 161.8101,202.3042 Q161.8101,204.396 162.4949,205.4626 Q163.1797,206.5293 164.5244,206.5293 Q165.1553,206.5293 165.7488,206.2595 Q166.3423,205.9897 166.9731,205.4087 Z " fill="#000000"/><text fill="#000000" font-family="sans-serif" font-size="14" lengthAdjust="spacing" textLength="70" x="178" y="207.7793">Controller</text><line style="stroke:#181818;stroke-width:0.5;" x1="150" x2="250" y1="218.4883" y2="218.4883"/><line style="stroke:#181818;stroke-width:0.5;" x1="150" x2="250" y1="226.4883" y2="226.4883"/></g><!--class JpaRepository--><g id="elem_JpaRepository"><rect codeLine="10" fill="#F1F1F1" height="48" id="JpaRepository" rx="2.5" ry="2.5" style="stroke:#181818;stroke-width:0.5;" width="126" x="415" y="78.4883"/><ellipse cx="430" cy="94.4883" fill="#B4A7E5" rx="11" ry="11" style="stroke:#181818;stroke-width:1.0;"/><path d="M425.9277,90.2534 L425.9277,88.0952 L433.3071,88.0952 L433.3071,90.2534 L430.8418,90.2534 L430.8418,98.3301 L433.3071,98.3301 L433.3071,100.4883 L425.9277,100.4883 L425.9277,98.3301 L428.3931,98.3301 L428.3931,90.2534 Z " fill="#000000"/><text fill="#000000" font-family="sans-serif" font-size="14" font-style="italic" lengthAdjust="spacing" textLength="94" x="444" y="99.7793">JpaRepository</text><line style="stroke:#181818;stroke-width:0.5;" x1="416" x2="540" y1="110.4883" y2="110.4883"/><line style="stroke:#181818;stroke-width:0.5;" x1="416" x2="540" y1="118.4883" y2="118.4883"/></g><!--class RepositoryImpl--><g id="elem_RepositoryImpl"><rect codeLine="12" fill="#F1F1F1" height="48" id="RepositoryImpl" rx="2.5" ry="2.5" style="stroke:#181818;stroke-width:0.5;" width="135" x="410.5" y="186.4883"/><ellipse cx="425.5" cy="202.4883" fill="#ADD1B2" rx="11" ry="11" style="stroke:#181818;stroke-width:1.0;"/><path d="M428.4731,208.1313 Q427.8921,208.4302 427.2529,208.5796 Q426.6138,208.729 425.9082,208.729 Q423.4014,208.729 422.0815,207.0771 Q420.7617,205.4253 420.7617,202.3042 Q420.7617,199.1748 422.0815,197.5229 Q423.4014,195.8711 425.9082,195.8711 Q426.6138,195.8711 427.2612,196.0205 Q427.9087,196.1699 428.4731,196.4688 L428.4731,199.1914 Q427.8423,198.6104 427.2488,198.3406 Q426.6553,198.0708 426.0244,198.0708 Q424.6797,198.0708 423.9949,199.1375 Q423.3101,200.2041 423.3101,202.3042 Q423.3101,204.396 423.9949,205.4626 Q424.6797,206.5293 426.0244,206.5293 Q426.6553,206.5293 427.2488,206.2595 Q427.8423,205.9897 428.4731,205.4087 Z " fill="#000000"/><text fill="#000000" font-family="sans-serif" font-size="14" lengthAdjust="spacing" textLength="103" x="439.5" y="207.7793">RepositoryImpl</text><line style="stroke:#181818;stroke-width:0.5;" x1="411.5" x2="544.5" y1="218.4883" y2="218.4883"/><line style="stroke:#181818;stroke-width:0.5;" x1="411.5" x2="544.5" y1="226.4883" y2="226.4883"/></g><!--class DbEntity--><g id="elem_DbEntity"><rect codeLine="14" fill="#F1F1F1" height="48" id="DbEntity" rx="2.5" ry="2.5" style="stroke:#181818;stroke-width:0.5;" width="89" x="286.5" y="186.4883"/><ellipse cx="301.5" cy="202.4883" fill="#ADD1B2" rx="11" ry="11" style="stroke:#181818;stroke-width:1.0;"/><path d="M304.4731,208.1313 Q303.8921,208.4302 303.2529,208.5796 Q302.6138,208.729 301.9082,208.729 Q299.4014,208.729 298.0815,207.0771 Q296.7617,205.4253 296.7617,202.3042 Q296.7617,199.1748 298.0815,197.5229 Q299.4014,195.8711 301.9082,195.8711 Q302.6138,195.8711 303.2612,196.0205 Q303.9087,196.1699 304.4731,196.4688 L304.4731,199.1914 Q303.8423,198.6104 303.2488,198.3406 Q302.6553,198.0708 302.0244,198.0708 Q300.6797,198.0708 299.9949,199.1375 Q299.3101,200.2041 299.3101,202.3042 Q299.3101,204.396 299.9949,205.4626 Q300.6797,206.5293 302.0244,206.5293 Q302.6553,206.5293 303.2488,206.2595 Q303.8423,205.9897 304.4731,205.4087 Z " fill="#000000"/><text fill="#000000" font-family="sans-serif" font-size="14" lengthAdjust="spacing" textLength="57" x="315.5" y="207.7793">DbEntity</text><line style="stroke:#181818;stroke-width:0.5;" x1="287.5" x2="374.5" y1="218.4883" y2="218.4883"/><line style="stroke:#181818;stroke-width:0.5;" x1="287.5" x2="374.5" y1="226.4883" y2="226.4883"/></g><!--class GrpcServiceStub--><g id="elem_GrpcServiceStub"><rect codeLine="16" fill="#F1F1F1" height="48" id="GrpcServiceStub" rx="2.5" ry="2.5" style="stroke:#181818;stroke-width:0.5;" width="143" x="725.5" y="78.4883"/><ellipse cx="740.5" cy="94.4883" fill="#B4A7E5" rx="11" ry="11" style="stroke:#181818;stroke-width:1.0;"/><path d="M736.4277,90.2534 L736.4277,88.0952 L743.8071,88.0952 L743.8071,90.2534 L741.3418,90.2534 L741.3418,98.3301 L743.8071,98.3301 L743.8071,100.4883 L736.4277,100.4883 L736.4277,98.3301 L738.8931,98.3301 L738.8931,90.2534 Z " fill="#000000"/><text fill="#000000" font-family="sans-serif" font-size="14" font-style="italic" lengthAdjust="spacing" textLength="111" x="754.5" y="99.7793">GrpcServiceStub</text><line style="stroke:#181818;stroke-width:0.5;" x1="726.5" x2="867.5" y1="110.4883" y2="110.4883"/><line style="stroke:#181818;stroke-width:0.5;" x1="726.5" x2="867.5" y1="118.4883" y2="118.4883"/></g><!--class GrpcServiceImpl--><g id="elem_GrpcServiceImpl"><rect codeLine="18" fill="#F1F1F1" height="48" id="GrpcServiceImpl" rx="2.5" ry="2.5" style="stroke:#181818;stroke-width:0.5;" width="142" x="726" y="186.4883"/><ellipse cx="741" cy="202.4883" fill="#ADD1B2" rx="11" ry="11" style="stroke:#181818;stroke-width:1.0;"/><path d="M743.9731,208.1313 Q743.3921,208.4302 742.7529,208.5796 Q742.1138,208.729 741.4082,208.729 Q738.9014,208.729 737.5815,207.0771 Q736.2617,205.4253 736.2617,202.3042 Q736.2617,199.1748 737.5815,197.5229 Q738.9014,195.8711 741.4082,195.8711 Q742.1138,195.8711 742.7612,196.0205 Q743.4087,196.1699 743.9731,196.4688 L743.9731,199.1914 Q743.3423,198.6104 742.7488,198.3406 Q742.1553,198.0708 741.5244,198.0708 Q740.1797,198.0708 739.4949,199.1375 Q738.8101,200.2041 738.8101,202.3042 Q738.8101,204.396 739.4949,205.4626 Q740.1797,206.5293 741.5244,206.5293 Q742.1553,206.5293 742.7488,206.2595 Q743.3423,205.9897 743.9731,205.4087 Z " fill="#000000"/><text fill="#000000" font-family="sans-serif" font-size="14" lengthAdjust="spacing" textLength="110" x="755" y="207.7793">GrpcServiceImpl</text><line style="stroke:#181818;stroke-width:0.5;" x1="727" x2="867" y1="218.4883" y2="218.4883"/><line style="stroke:#181818;stroke-width:0.5;" x1="727" x2="867" y1="226.4883" y2="226.4883"/></g><!--class ProtoBuffer--><g id="elem_ProtoBuffer"><rect codeLine="20" fill="#F1F1F1" height="48" id="ProtoBuffer" rx="2.5" ry="2.5" style="stroke:#181818;stroke-width:0.5;" width="110" x="581" y="186.4883"/><ellipse cx="596" cy="202.4883" fill="#ADD1B2" rx="11" ry="11" style="stroke:#181818;stroke-width:1.0;"/><path d="M598.9731,208.1313 Q598.3921,208.4302 597.7529,208.5796 Q597.1138,208.729 596.4082,208.729 Q593.9014,208.729 592.5815,207.0771 Q591.2617,205.4253 591.2617,202.3042 Q591.2617,199.1748 592.5815,197.5229 Q593.9014,195.8711 596.4082,195.8711 Q597.1138,195.8711 597.7612,196.0205 Q598.4087,196.1699 598.9731,196.4688 L598.9731,199.1914 Q598.3423,198.6104 597.7488,198.3406 Q597.1553,198.0708 596.5244,198.0708 Q595.1797,198.0708 594.4949,199.1375 Q593.8101,200.2041 593.8101,202.3042 Q593.8101,204.396 594.4949,205.4626 Q595.1797,206.5293 596.5244,206.5293 Q597.1553,206.5293 597.7488,206.2595 Q598.3423,205.9897 598.9731,205.4087 Z " fill="#000000"/><text fill="#000000" font-family="sans-serif" font-size="14" lengthAdjust="spacing" textLength="78" x="610" y="207.7793">ProtoBuffer</text><line style="stroke:#181818;stroke-width:0.5;" x1="582" x2="690" y1="218.4883" y2="218.4883"/><line style="stroke:#181818;stroke-width:0.5;" x1="582" x2="690" y1="226.4883" y2="226.4883"/></g><!--class Interactor--><g id="elem_Interactor"><rect codeLine="30" fill="#F1F1F1" height="56.6211" id="Interactor" rx="2.5" ry="2.5" style="stroke:#181818;stroke-width:0.5;" width="99" x="286.5" y="309.4883"/><ellipse cx="301.5" cy="329.7988" fill="#B4A7E5" rx="11" ry="11" style="stroke:#181818;stroke-width:1.0;"/><path d="M297.4277,325.564 L297.4277,323.4058 L304.8071,323.4058 L304.8071,325.564 L302.3418,325.564 L302.3418,333.6406 L304.8071,333.6406 L304.8071,335.7988 L297.4277,335.7988 L297.4277,333.6406 L299.8931,333.6406 L299.8931,325.564 Z " fill="#000000"/><text fill="#000000" font-family="sans-serif" font-size="12" font-style="italic" lengthAdjust="spacing" textLength="64" x="317" y="326.0898">&#171;InputPort&#187;</text><text fill="#000000" font-family="sans-serif" font-size="14" font-style="italic" lengthAdjust="spacing" textLength="67" x="315.5" y="342.1563">Interactor</text><line style="stroke:#181818;stroke-width:0.5;" x1="287.5" x2="384.5" y1="350.1094" y2="350.1094"/><line style="stroke:#181818;stroke-width:0.5;" x1="287.5" x2="384.5" y1="358.1094" y2="358.1094"/></g><!--class Dto--><g id="elem_Dto"><rect codeLine="32" fill="#F1F1F1" height="48" id="Dto" rx="2.5" ry="2.5" style="stroke:#181818;stroke-width:0.5;" width="56" x="195" y="313.7983"/><ellipse cx="210" cy="329.7983" fill="#ADD1B2" rx="11" ry="11" style="stroke:#181818;stroke-width:1.0;"/><path d="M212.9731,335.4413 Q212.3921,335.7402 211.7529,335.8896 Q211.1138,336.039 210.4082,336.039 Q207.9014,336.039 206.5815,334.3871 Q205.2617,332.7353 205.2617,329.6142 Q205.2617,326.4848 206.5815,324.8329 Q207.9014,323.1811 210.4082,323.1811 Q211.1138,323.1811 211.7612,323.3305 Q212.4087,323.4799 212.9731,323.7788 L212.9731,326.5014 Q212.3423,325.9204 211.7488,325.6506 Q211.1553,325.3808 210.5244,325.3808 Q209.1797,325.3808 208.4949,326.4475 Q207.8101,327.5141 207.8101,329.6142 Q207.8101,331.706 208.4949,332.7726 Q209.1797,333.8393 210.5244,333.8393 Q211.1553,333.8393 211.7488,333.5695 Q212.3423,333.2997 212.9731,332.7187 Z " fill="#000000"/><text fill="#000000" font-family="sans-serif" font-size="14" lengthAdjust="spacing" textLength="24" x="224" y="335.0893">Dto</text><line style="stroke:#181818;stroke-width:0.5;" x1="196" x2="250" y1="345.7983" y2="345.7983"/><line style="stroke:#181818;stroke-width:0.5;" x1="196" x2="250" y1="353.7983" y2="353.7983"/></g><!--class InteractorImpl--><g id="elem_InteractorImpl"><rect codeLine="34" fill="#F1F1F1" height="48" id="InteractorImpl" rx="2.5" ry="2.5" style="stroke:#181818;stroke-width:0.5;" width="129" x="450.5" y="426.1083"/><ellipse cx="465.5" cy="442.1083" fill="#ADD1B2" rx="11" ry="11" style="stroke:#181818;stroke-width:1.0;"/><path d="M468.4731,447.7513 Q467.8921,448.0502 467.2529,448.1996 Q466.6138,448.349 465.9082,448.349 Q463.4014,448.349 462.0815,446.6971 Q460.7617,445.0453 460.7617,441.9242 Q460.7617,438.7948 462.0815,437.1429 Q463.4014,435.4911 465.9082,435.4911 Q466.6138,435.4911 467.2612,435.6405 Q467.9087,435.7899 468.4731,436.0888 L468.4731,438.8114 Q467.8423,438.2304 467.2488,437.9606 Q466.6553,437.6908 466.0244,437.6908 Q464.6797,437.6908 463.9949,438.7575 Q463.3101,439.8241 463.3101,441.9242 Q463.3101,444.016 463.9949,445.0826 Q464.6797,446.1493 466.0244,446.1493 Q466.6553,446.1493 467.2488,445.8795 Q467.8423,445.6097 468.4731,445.0287 Z " fill="#000000"/><text fill="#000000" font-family="sans-serif" font-size="14" lengthAdjust="spacing" textLength="97" x="479.5" y="447.3993">InteractorImpl</text><line style="stroke:#181818;stroke-width:0.5;" x1="451.5" x2="578.5" y1="458.1083" y2="458.1083"/><line style="stroke:#181818;stroke-width:0.5;" x1="451.5" x2="578.5" y1="466.1083" y2="466.1083"/></g><!--class Repository--><g id="elem_Repository"><rect codeLine="36" fill="#F1F1F1" height="56.6211" id="Repository" rx="2.5" ry="2.5" style="stroke:#181818;stroke-width:0.5;" width="105" x="420.5" y="309.4883"/><ellipse cx="435.5" cy="329.7988" fill="#B4A7E5" rx="11" ry="11" style="stroke:#181818;stroke-width:1.0;"/><path d="M431.4277,325.564 L431.4277,323.4058 L438.8071,323.4058 L438.8071,325.564 L436.3418,325.564 L436.3418,333.6406 L438.8071,333.6406 L438.8071,335.7988 L431.4277,335.7988 L431.4277,333.6406 L433.8931,333.6406 L433.8931,325.564 Z " fill="#000000"/><text fill="#000000" font-family="sans-serif" font-size="12" font-style="italic" lengthAdjust="spacing" textLength="74" x="449" y="326.0898">&#171;OutputPort&#187;</text><text fill="#000000" font-family="sans-serif" font-size="14" font-style="italic" lengthAdjust="spacing" textLength="73" x="449.5" y="342.1563">Repository</text><line style="stroke:#181818;stroke-width:0.5;" x1="421.5" x2="524.5" y1="350.1094" y2="350.1094"/><line style="stroke:#181818;stroke-width:0.5;" x1="421.5" x2="524.5" y1="358.1094" y2="358.1094"/></g><!--class GrpcService--><g id="elem_GrpcService"><rect codeLine="38" fill="#F1F1F1" height="56.6211" id="GrpcService" rx="2.5" ry="2.5" style="stroke:#181818;stroke-width:0.5;" width="112" x="561" y="309.4883"/><ellipse cx="576" cy="329.7988" fill="#B4A7E5" rx="11" ry="11" style="stroke:#181818;stroke-width:1.0;"/><path d="M571.9277,325.564 L571.9277,323.4058 L579.3071,323.4058 L579.3071,325.564 L576.8418,325.564 L576.8418,333.6406 L579.3071,333.6406 L579.3071,335.7988 L571.9277,335.7988 L571.9277,333.6406 L574.3931,333.6406 L574.3931,325.564 Z " fill="#000000"/><text fill="#000000" font-family="sans-serif" font-size="12" font-style="italic" lengthAdjust="spacing" textLength="74" x="593" y="326.0898">&#171;OutputPort&#187;</text><text fill="#000000" font-family="sans-serif" font-size="14" font-style="italic" lengthAdjust="spacing" textLength="80" x="590" y="342.1563">GrpcService</text><line style="stroke:#181818;stroke-width:0.5;" x1="562" x2="672" y1="350.1094" y2="350.1094"/><line style="stroke:#181818;stroke-width:0.5;" x1="562" x2="672" y1="358.1094" y2="358.1094"/></g><!--class DomainEvent--><g id="elem_DomainEvent"><rect codeLine="62" fill="#F1F1F1" height="48" id="DomainEvent" rx="2.5" ry="2.5" style="stroke:#181818;stroke-width:0.5;" width="122" x="334" y="549.1083"/><ellipse cx="349" cy="565.1083" fill="#ADD1B2" rx="11" ry="11" style="stroke:#181818;stroke-width:1.0;"/><path d="M351.9731,570.7513 Q351.3921,571.0502 350.7529,571.1996 Q350.1138,571.349 349.4082,571.349 Q346.9014,571.349 345.5815,569.6971 Q344.2617,568.0453 344.2617,564.9242 Q344.2617,561.7948 345.5815,560.1429 Q346.9014,558.4911 349.4082,558.4911 Q350.1138,558.4911 350.7612,558.6405 Q351.4087,558.7899 351.9731,559.0888 L351.9731,561.8114 Q351.3423,561.2304 350.7488,560.9606 Q350.1553,560.6908 349.5244,560.6908 Q348.1797,560.6908 347.4949,561.7575 Q346.8101,562.8241 346.8101,564.9242 Q346.8101,567.016 347.4949,568.0826 Q348.1797,569.1493 349.5244,569.1493 Q350.1553,569.1493 350.7488,568.8795 Q351.3423,568.6097 351.9731,568.0287 Z " fill="#000000"/><text fill="#000000" font-family="sans-serif" font-size="14" lengthAdjust="spacing" textLength="90" x="363" y="570.3993">DomainEvent</text><line style="stroke:#181818;stroke-width:0.5;" x1="335" x2="455" y1="581.1083" y2="581.1083"/><line style="stroke:#181818;stroke-width:0.5;" x1="335" x2="455" y1="589.1083" y2="589.1083"/></g><!--class DomainService--><g id="elem_DomainService"><rect codeLine="60" fill="#F1F1F1" height="48" id="DomainService" rx="2.5" ry="2.5" style="stroke:#181818;stroke-width:0.5;" width="133" x="490.5" y="549.1083"/><ellipse cx="505.5" cy="565.1083" fill="#ADD1B2" rx="11" ry="11" style="stroke:#181818;stroke-width:1.0;"/><path d="M508.4731,570.7513 Q507.8921,571.0502 507.2529,571.1996 Q506.6138,571.349 505.9082,571.349 Q503.4014,571.349 502.0815,569.6971 Q500.7617,568.0453 500.7617,564.9242 Q500.7617,561.7948 502.0815,560.1429 Q503.4014,558.4911 505.9082,558.4911 Q506.6138,558.4911 507.2612,558.6405 Q507.9087,558.7899 508.4731,559.0888 L508.4731,561.8114 Q507.8423,561.2304 507.2488,560.9606 Q506.6553,560.6908 506.0244,560.6908 Q504.6797,560.6908 503.9949,561.7575 Q503.3101,562.8241 503.3101,564.9242 Q503.3101,567.016 503.9949,568.0826 Q504.6797,569.1493 506.0244,569.1493 Q506.6553,569.1493 507.2488,568.8795 Q507.8423,568.6097 508.4731,568.0287 Z " fill="#000000"/><text fill="#000000" font-family="sans-serif" font-size="14" lengthAdjust="spacing" textLength="101" x="519.5" y="570.3993">DomainService</text><line style="stroke:#181818;stroke-width:0.5;" x1="491.5" x2="622.5" y1="581.1083" y2="581.1083"/><line style="stroke:#181818;stroke-width:0.5;" x1="491.5" x2="622.5" y1="589.1083" y2="589.1083"/></g><!--class AggregateRoot--><g id="elem_AggregateRoot"><rect codeLine="56" fill="#F1F1F1" height="48" id="AggregateRoot" rx="2.5" ry="2.5" style="stroke:#181818;stroke-width:0.5;" width="136" x="658" y="549.1083"/><ellipse cx="673" cy="565.1083" fill="#ADD1B2" rx="11" ry="11" style="stroke:#181818;stroke-width:1.0;"/><path d="M675.9731,570.7513 Q675.3921,571.0502 674.7529,571.1996 Q674.1138,571.349 673.4082,571.349 Q670.9014,571.349 669.5815,569.6971 Q668.2617,568.0453 668.2617,564.9242 Q668.2617,561.7948 669.5815,560.1429 Q670.9014,558.4911 673.4082,558.4911 Q674.1138,558.4911 674.7612,558.6405 Q675.4087,558.7899 675.9731,559.0888 L675.9731,561.8114 Q675.3423,561.2304 674.7488,560.9606 Q674.1553,560.6908 673.5244,560.6908 Q672.1797,560.6908 671.4949,561.7575 Q670.8101,562.8241 670.8101,564.9242 Q670.8101,567.016 671.4949,568.0826 Q672.1797,569.1493 673.5244,569.1493 Q674.1553,569.1493 674.7488,568.8795 Q675.3423,568.6097 675.9731,568.0287 Z " fill="#000000"/><text fill="#000000" font-family="sans-serif" font-size="14" lengthAdjust="spacing" textLength="104" x="687" y="570.3993">AggregateRoot</text><line style="stroke:#181818;stroke-width:0.5;" x1="659" x2="793" y1="581.1083" y2="581.1083"/><line style="stroke:#181818;stroke-width:0.5;" x1="659" x2="793" y1="589.1083" y2="589.1083"/></g><!--class Entity--><g id="elem_Entity"><rect codeLine="58" fill="#F1F1F1" height="48" id="Entity" rx="2.5" ry="2.5" style="stroke:#181818;stroke-width:0.5;" width="70" x="691" y="657.1083"/><ellipse cx="706" cy="673.1083" fill="#ADD1B2" rx="11" ry="11" style="stroke:#181818;stroke-width:1.0;"/><path d="M708.9731,678.7513 Q708.3921,679.0502 707.7529,679.1996 Q707.1138,679.349 706.4082,679.349 Q703.9014,679.349 702.5815,677.6971 Q701.2617,676.0453 701.2617,672.9242 Q701.2617,669.7948 702.5815,668.1429 Q703.9014,666.4911 706.4082,666.4911 Q707.1138,666.4911 707.7612,666.6405 Q708.4087,666.7899 708.9731,667.0888 L708.9731,669.8114 Q708.3423,669.2304 707.7488,668.9606 Q707.1553,668.6908 706.5244,668.6908 Q705.1797,668.6908 704.4949,669.7575 Q703.8101,670.8241 703.8101,672.9242 Q703.8101,675.016 704.4949,676.0826 Q705.1797,677.1493 706.5244,677.1493 Q707.1553,677.1493 707.7488,676.8795 Q708.3423,676.6097 708.9731,676.0287 Z " fill="#000000"/><text fill="#000000" font-family="sans-serif" font-size="14" lengthAdjust="spacing" textLength="38" x="720" y="678.3993">Entity</text><line style="stroke:#181818;stroke-width:0.5;" x1="692" x2="760" y1="689.1083" y2="689.1083"/><line style="stroke:#181818;stroke-width:0.5;" x1="692" x2="760" y1="697.1083" y2="697.1083"/></g><!--reverse link Message to Controller--><g id="link_Message_Controller"><path codeLine="23" d="M119.89,210.4883 C131.44,210.4883 136.99,210.4883 148.54,210.4883 " fill="none" id="Message-backto-Controller" style="stroke:#181818;stroke-width:1.0;"/><polygon fill="#181818" points="113.89,210.4883,122.89,214.4883,118.89,210.4883,122.89,206.4883,113.89,210.4883" style="stroke:#181818;stroke-width:1.0;"/></g><!--reverse link JpaRepository to RepositoryImpl--><g id="link_JpaRepository_RepositoryImpl"><path codeLine="24" d="M478,132.7483 C478,150.4183 478,168.6183 478,186.2783 " fill="none" id="JpaRepository-backto-RepositoryImpl" style="stroke:#181818;stroke-width:1.0;"/><polygon fill="#181818" points="478,126.7483,474,135.7483,478,131.7483,482,135.7483,478,126.7483" style="stroke:#181818;stroke-width:1.0;"/></g><!--reverse link DbEntity to RepositoryImpl--><g id="link_DbEntity_RepositoryImpl"><path codeLine="25" d="M381.79,210.4883 C393.23,210.4883 398.68,210.4883 410.13,210.4883 " fill="none" id="DbEntity-backto-RepositoryImpl" style="stroke:#181818;stroke-width:1.0;"/><polygon fill="#181818" points="375.79,210.4883,384.79,214.4883,380.79,210.4883,384.79,206.4883,375.79,210.4883" style="stroke:#181818;stroke-width:1.0;"/></g><!--reverse link GrpcServiceStub to GrpcServiceImpl--><g id="link_GrpcServiceStub_GrpcServiceImpl"><path codeLine="26" d="M797,132.7483 C797,150.4183 797,168.6183 797,186.2783 " fill="none" id="GrpcServiceStub-backto-GrpcServiceImpl" style="stroke:#181818;stroke-width:1.0;"/><polygon fill="#181818" points="797,126.7483,793,135.7483,797,131.7483,801,135.7483,797,126.7483" style="stroke:#181818;stroke-width:1.0;"/></g><!--reverse link ProtoBuffer to GrpcServiceImpl--><g id="link_ProtoBuffer_GrpcServiceImpl"><path codeLine="27" d="M697.34,210.4883 C708.76,210.4883 714.18,210.4883 725.6,210.4883 " fill="none" id="ProtoBuffer-backto-GrpcServiceImpl" style="stroke:#181818;stroke-width:1.0;"/><polygon fill="#181818" points="691.34,210.4883,700.34,214.4883,696.34,210.4883,700.34,206.4883,691.34,210.4883" style="stroke:#181818;stroke-width:1.0;"/></g><!--reverse link Dto to Interactor--><g id="link_Dto_Interactor"><path codeLine="41" d="M257.25,337.7983 C268.84,337.7983 274.42,337.7983 286.01,337.7983 " fill="none" id="Dto-backto-Interactor" style="stroke:#181818;stroke-width:1.0;"/><polygon fill="#181818" points="251.25,337.7983,260.25,341.7983,256.25,337.7983,260.25,333.7983,251.25,337.7983" style="stroke:#181818;stroke-width:1.0;"/></g><!--link Controller to Dto--><g id="link_Controller_Dto"><path codeLine="42" d="M204.27,234.7683 C208.4,257.2683 213.5479,285.2767 217.6679,307.7467 " fill="none" id="Controller-to-Dto" style="stroke:#181818;stroke-width:1.0;"/><polygon fill="#181818" points="218.75,313.6483,221.0613,304.0745,217.8483,308.7303,213.1924,305.5173,218.75,313.6483" style="stroke:#181818;stroke-width:1.0;"/></g><!--reverse link Interactor to InteractorImpl--><g id="link_Interactor_InteractorImpl"><path codeLine="43" d="M396.0333,375.7927 C425.6433,394.0427 448.76,408.2883 476.91,425.6383 " fill="none" id="Interactor-backto-InteractorImpl" style="stroke:#181818;stroke-width:1.0;"/><polygon fill="none" points="380.71,366.3483,392.8851,380.9005,399.1814,370.685,380.71,366.3483" style="stroke:#181818;stroke-width:1.0;"/></g><!--link Controller to Interactor--><g id="link_Controller_Interactor"><path codeLine="44" d="M231.31,234.9883 C243.4,244.4183 257.14,255.6283 269,266.4883 C283.68,279.9183 294.9876,291.502 307.3076,304.832 " fill="none" id="Controller-to-Interactor" style="stroke:#181818;stroke-width:1.0;"/><polygon fill="#181818" points="311.38,309.2383,308.2089,299.9139,307.9863,305.5664,302.3338,305.3438,311.38,309.2383" style="stroke:#181818;stroke-width:1.0;"/></g><!--reverse link Repository to InteractorImpl--><g id="link_Repository_InteractorImpl"><path codeLine="46" d="M485.6253,371.9555 C492.5753,390.2055 499.46,408.2883 506.06,425.6383 " fill="none" id="Repository-backto-InteractorImpl" style="stroke:#181818;stroke-width:1.0;"/><polygon fill="#181818" points="483.49,366.3483,482.9549,376.1826,485.2694,371.0209,490.4311,373.3355,483.49,366.3483" style="stroke:#181818;stroke-width:1.0;"/></g><!--reverse link GrpcService to InteractorImpl--><g id="link_GrpcService_InteractorImpl"><path codeLine="47" d="M587.4472,370.7542 C570.5772,389.0042 552.75,408.2883 536.7,425.6383 " fill="none" id="GrpcService-backto-InteractorImpl" style="stroke:#181818;stroke-width:1.0;"/><polygon fill="#181818" points="591.52,366.3483,582.4735,370.242,588.126,370.0199,588.3481,375.6724,591.52,366.3483" style="stroke:#181818;stroke-width:1.0;"/></g><!--link RepositoryImpl to Interactor--><!--reverse link Controller to RepositoryImpl--><!--link RepositoryImpl to GrpcServiceImpl--><!--link DomainEvent to DomainService--><!--link DomainService to AggregateRoot--><g id="link_DomainService_AggregateRoot"><path codeLine="65" d="M623.68,573.1083 C635,573.1083 640.33,573.1083 651.65,573.1083 " fill="none" id="DomainService-to-AggregateRoot" style="stroke:#181818;stroke-width:1.0;"/><polygon fill="#181818" points="657.65,573.1083,648.65,569.1083,652.65,573.1083,648.65,577.1083,657.65,573.1083" style="stroke:#181818;stroke-width:1.0;"/></g><!--link AggregateRoot to Entity--><g id="link_AggregateRoot_Entity"><path codeLine="66" d="M726,597.3683 C726,615.0483 726,633.2383 726,650.8983 " fill="none" id="AggregateRoot-to-Entity" style="stroke:#181818;stroke-width:1.0;"/><polygon fill="#181818" points="726,656.8983,730,647.8983,726,651.8983,722,647.8983,726,656.8983" style="stroke:#181818;stroke-width:1.0;"/></g><!--link InteractorImpl to DomainEvent--><g id="link_InteractorImpl_DomainEvent"><path codeLine="68" d="M491.86,474.4383 C470.61,495.8683 443.5147,523.1878 422.2947,544.5878 " fill="none" id="InteractorImpl-to-DomainEvent" style="stroke:#181818;stroke-width:1.0;"/><polygon fill="#181818" points="418.07,548.8483,427.2474,545.274,421.5906,545.2978,421.5667,539.641,418.07,548.8483" style="stroke:#181818;stroke-width:1.0;"/></g><!--link InteractorImpl to DomainService--><g id="link_InteractorImpl_DomainService"><path codeLine="69" d="M523.1,474.4383 C530.54,495.8683 539.5321,521.7802 546.9621,543.1802 " fill="none" id="InteractorImpl-to-DomainService" style="stroke:#181818;stroke-width:1.0;"/><polygon fill="#181818" points="548.93,548.8483,549.7568,539.0342,547.2901,544.1249,542.1994,541.6581,548.93,548.8483" style="stroke:#181818;stroke-width:1.0;"/></g><!--link InteractorImpl to AggregateRoot--><g id="link_InteractorImpl_AggregateRoot"><path codeLine="70" d="M577.08,474.5883 C597.95,483.4183 620.99,494.2283 641,506.1083 C661.88,518.5083 678.8802,531.4857 695.0702,545.0457 " fill="none" id="InteractorImpl-to-AggregateRoot" style="stroke:#181818;stroke-width:1.0;"/><polygon fill="#181818" points="699.67,548.8983,695.3387,540.0529,695.8369,545.6878,690.202,546.186,699.67,548.8983" style="stroke:#181818;stroke-width:1.0;"/></g><!--reverse link Repository to RepositoryImpl--><g id="link_Repository_RepositoryImpl"><path codeLine="72" d="M474.8172,291.2926 C475.7072,268.9726 476.23,255.8583 477.07,234.7683 " fill="none" id="Repository-backto-RepositoryImpl" style="stroke:#181818;stroke-width:1.0;"/><polygon fill="none" points="474.1,309.2783,480.8124,291.5316,468.8219,291.0535,474.1,309.2783" style="stroke:#181818;stroke-width:1.0;"/></g><!--reverse link GrpcService to GrpcServiceImpl--><g id="link_GrpcService_GrpcServiceImpl"><path codeLine="73" d="M671.6238,298.7656 C703.6638,276.4656 733.37,255.7883 763.57,234.7683 " fill="none" id="GrpcService-backto-GrpcServiceImpl" style="stroke:#181818;stroke-width:1.0;"/><polygon fill="none" points="656.85,309.0483,675.0514,303.6902,668.1963,293.841,656.85,309.0483" style="stroke:#181818;stroke-width:1.0;"/></g><!--link RepositoryImpl to AggregateRoot--><g id="link_RepositoryImpl_AggregateRoot"><path codeLine="75" d="M512.03,234.8383 C527,243.8783 545.2,253.2883 563,258.4883 C576.47,262.4183 678.8,256.8583 689,266.4883 C768.27,341.3483 746.0045,485.1218 733.1545,542.8118 " fill="none" id="RepositoryImpl-to-AggregateRoot" style="stroke:#181818;stroke-width:1.0;"/><polygon fill="#181818" points="731.85,548.6683,737.711,540.7532,732.9371,543.7879,729.9024,539.0139,731.85,548.6683" style="stroke:#181818;stroke-width:1.0;"/></g><!--link GrpcServiceImpl to AggregateRoot--><g id="link_GrpcServiceImpl_AggregateRoot"><path codeLine="76" d="M794.79,234.8083 C789.82,284.0283 776.24,401.8883 752,498.1083 C747.64,515.4083 743.0842,528.7745 737.5742,543.1745 " fill="none" id="GrpcServiceImpl-to-AggregateRoot" style="stroke:#181818;stroke-width:1.0;"/><polygon fill="#181818" points="735.43,548.7783,742.3822,541.8021,737.2169,544.1085,734.9105,538.9431,735.43,548.7783" style="stroke:#181818;stroke-width:1.0;"/></g><!--SRC=[bLJBJiCm4BpxAtpZbFQEeahG8bGaHDKU4GVZEAc5OrlEfWW1_qvU9SxMJTfUKdbsnxFZiM_s0BQudS-jOXhANCsuoUTSiQA84iaont92G88ITAa4qtIrMj68BasUCvqGOXd_O9cWKgUE5U1A3gKJz9lGwjVGq6TH57N9zo_nLfT6WpDA2VSFI0t2fOmB-cJPLbXJI33k2pNsm3gt2e6hzmTTgVqAS3uwotV27IGNEoZVKQE71cWtpe2vBzEqLLjXmtbdtZIH4Yb42-J8h7C1Dw9fejAUjWxSc288xtxq1NVZiOFx8-ScES8IF0_xs31hbUGCfD5TPle3MzV_6Az6et6yrhQ4ZN6mME0Z1uDM-iR1KVRCNhRY-AM4K-fWR0B5LRatmioJV7J1XokfOy49L9yXZt-YY8QnUkInJHBpgT56VVEvQRni-0LUAg_gypmbv6OlaqJegLo_jcLlvxLVI11EPs_HfJnEPdiOlIpDKIGcPx8wpERpS10QJYa6DV_67Ez8YmwUrBiiSo9Z8BR604e_UW2xI-9JrrWDdU2jl3RM8KqqGee7EaXeiKbr1tHFq6XMi1kDfAiwZlvTrZESW8JJtTwtqLoGC_aEjkACJ4MkkxD1oLEFyLZl7m00]--></g></svg>