<?xml version="1.0" encoding="us-ascii" standalone="no"?><svg xmlns="http://www.w3.org/2000/svg" xmlns:xlink="http://www.w3.org/1999/xlink" contentStyleType="text/css" height="1315px" preserveAspectRatio="none" style="width:1183px;height:1315px;background:#FFFFFF;" version="1.1" viewBox="0 0 1183 1315" width="1183px" zoomAndPan="magnify"><defs/><g><!--cluster account--><g id="cluster_account"><path d="M350.5,187 L406.5,187 A3.75,3.75 0 0 1 409,189.5 L416,209.4883 L1173.5,209.4883 A2.5,2.5 0 0 1 1176,211.9883 L1176,879.5 A2.5,2.5 0 0 1 1173.5,882 L350.5,882 A2.5,2.5 0 0 1 348,879.5 L348,189.5 A2.5,2.5 0 0 1 350.5,187 " fill="none" style="stroke:#000000;stroke-width:1.5;"/><line style="stroke:#000000;stroke-width:1.5;" x1="348" x2="416" y1="209.4883" y2="209.4883"/><text fill="#000000" font-family="sans-serif" font-size="14" font-weight="bold" lengthAdjust="spacing" textLength="55" x="352" y="202.5352">account</text></g><!--cluster customer--><g id="cluster_customer"><path d="M358.5,6 L426.5,6 A3.75,3.75 0 0 1 429,8.5 L436,28.4883 L911,28.4883 A2.5,2.5 0 0 1 913.5,30.9883 L913.5,160.5 A2.5,2.5 0 0 1 911,163 L358.5,163 A2.5,2.5 0 0 1 356,160.5 L356,8.5 A2.5,2.5 0 0 1 358.5,6 " fill="none" style="stroke:#000000;stroke-width:1.5;"/><line style="stroke:#000000;stroke-width:1.5;" x1="356" x2="436" y1="28.4883" y2="28.4883"/><text fill="#000000" font-family="sans-serif" font-size="14" font-weight="bold" lengthAdjust="spacing" textLength="67" x="360" y="21.5352">customer</text></g><!--cluster product--><g id="cluster_product"><path d="M352,906 L408,906 A3.75,3.75 0 0 1 410.5,908.5 L417.5,928.4883 L906.5,928.4883 A2.5,2.5 0 0 1 909,930.9883 L909,1084.5 A2.5,2.5 0 0 1 906.5,1087 L352,1087 A2.5,2.5 0 0 1 349.5,1084.5 L349.5,908.5 A2.5,2.5 0 0 1 352,906 " fill="none" style="stroke:#000000;stroke-width:1.5;"/><line style="stroke:#000000;stroke-width:1.5;" x1="349.5" x2="417.5" y1="928.4883" y2="928.4883"/><text fill="#000000" font-family="sans-serif" font-size="14" font-weight="bold" lengthAdjust="spacing" textLength="55" x="353.5" y="921.5352">product</text></g><!--cluster transaction--><g id="cluster_transaction"><path d="M8.5,1111 L90.5,1111 A3.75,3.75 0 0 1 93,1113.5 L100,1133.4883 L950.5,1133.4883 A2.5,2.5 0 0 1 953,1135.9883 L953,1305.5 A2.5,2.5 0 0 1 950.5,1308 L8.5,1308 A2.5,2.5 0 0 1 6,1305.5 L6,1113.5 A2.5,2.5 0 0 1 8.5,1111 " fill="none" style="stroke:#000000;stroke-width:1.5;"/><line style="stroke:#000000;stroke-width:1.5;" x1="6" x2="100" y1="1133.4883" y2="1133.4883"/><text fill="#000000" font-family="sans-serif" font-size="14" font-weight="bold" lengthAdjust="spacing" textLength="81" x="10" y="1126.5352">transaction</text></g><!--class Account--><g id="elem_Account"><rect codeLine="6" fill="#F1F1F1" height="146.9297" id="Account" rx="2.5" ry="2.5" style="stroke:#181818;stroke-width:0.5;" width="214" x="364" y="532.54"/><ellipse cx="438.75" cy="548.54" fill="#ADD1B2" rx="11" ry="11" style="stroke:#181818;stroke-width:1.0;"/><path d="M441.7231,554.1831 Q441.1421,554.4819 440.5029,554.6313 Q439.8638,554.7807 439.1582,554.7807 Q436.6514,554.7807 435.3315,553.1289 Q434.0117,551.477 434.0117,548.3559 Q434.0117,545.2265 435.3315,543.5747 Q436.6514,541.9228 439.1582,541.9228 Q439.8638,541.9228 440.5112,542.0722 Q441.1587,542.2216 441.7231,542.5205 L441.7231,545.2431 Q441.0923,544.6621 440.4988,544.3923 Q439.9053,544.1225 439.2744,544.1225 Q437.9297,544.1225 437.2449,545.1892 Q436.5601,546.2558 436.5601,548.3559 Q436.5601,550.4477 437.2449,551.5144 Q437.9297,552.581 439.2744,552.581 Q439.9053,552.581 440.4988,552.3112 Q441.0923,552.0415 441.7231,551.4604 Z " fill="#000000"/><text fill="#000000" font-family="sans-serif" font-size="14" lengthAdjust="spacing" textLength="56" x="459.25" y="553.831">Account</text><line style="stroke:#181818;stroke-width:0.5;" x1="365" x2="577" y1="564.54" y2="564.54"/><ellipse cx="375" cy="578.2841" fill="#000000" rx="3" ry="3" style="stroke:#000000;stroke-width:1.0;"/><text fill="#000000" font-family="sans-serif" font-size="14" lengthAdjust="spacing" textLength="120" x="384" y="582.0752">accountId : String</text><line style="stroke:#181818;stroke-width:1.0;stroke-dasharray:1.0,2.0;" x1="365" x2="577" y1="589.0283" y2="589.0283"/><ellipse cx="375" cy="602.7724" fill="#000000" rx="3" ry="3" style="stroke:#000000;stroke-width:1.0;"/><text fill="#000000" font-family="sans-serif" font-size="14" lengthAdjust="spacing" textLength="162" x="384" y="606.5634">accountNumber : String</text><ellipse cx="375" cy="619.2607" fill="#000000" rx="3" ry="3" style="stroke:#000000;stroke-width:1.0;"/><text fill="#000000" font-family="sans-serif" font-size="14" lengthAdjust="spacing" textLength="146" x="384" y="623.0517">accountName : String</text><ellipse cx="375" cy="635.749" fill="#000000" rx="3" ry="3" style="stroke:#000000;stroke-width:1.0;"/><text fill="#000000" font-family="sans-serif" font-size="14" lengthAdjust="spacing" textLength="130" x="384" y="639.54">description : String</text><ellipse cx="375" cy="652.2373" fill="#000000" rx="3" ry="3" style="stroke:#000000;stroke-width:1.0;"/><text fill="#000000" font-family="sans-serif" font-size="14" lengthAdjust="spacing" textLength="188" x="384" y="656.0283">accountType : AccountType</text><text fill="#000000" font-family="sans-serif" font-size="14" lengthAdjust="spacing" textLength="117" x="384" y="672.5166">balance : Balance</text></g><!--class AccountType--><g id="elem_AccountType"><rect codeLine="16" fill="#F1F1F1" height="80.9766" id="AccountType" rx="2.5" ry="2.5" style="stroke:#181818;stroke-width:0.5;" width="156" x="737" y="387.51"/><ellipse cx="767.75" cy="403.51" fill="#ADD1B2" rx="11" ry="11" style="stroke:#181818;stroke-width:1.0;"/><path d="M770.7231,409.1531 Q770.1421,409.4519 769.5029,409.6013 Q768.8638,409.7507 768.1582,409.7507 Q765.6514,409.7507 764.3315,408.0989 Q763.0117,406.447 763.0117,403.3259 Q763.0117,400.1965 764.3315,398.5447 Q765.6514,396.8928 768.1582,396.8928 Q768.8638,396.8928 769.5112,397.0422 Q770.1587,397.1916 770.7231,397.4905 L770.7231,400.2131 Q770.0923,399.6321 769.4988,399.3623 Q768.9053,399.0925 768.2744,399.0925 Q766.9297,399.0925 766.2449,400.1592 Q765.5601,401.2258 765.5601,403.3259 Q765.5601,405.4177 766.2449,406.4844 Q766.9297,407.551 768.2744,407.551 Q768.9053,407.551 769.4988,407.2812 Q770.0923,407.0115 770.7231,406.4304 Z " fill="#000000"/><text fill="#000000" font-family="sans-serif" font-size="14" lengthAdjust="spacing" textLength="89" x="785.25" y="408.801">AccountType</text><line style="stroke:#181818;stroke-width:0.5;" x1="738" x2="892" y1="419.51" y2="419.51"/><ellipse cx="748" cy="433.2541" fill="#000000" rx="3" ry="3" style="stroke:#000000;stroke-width:1.0;"/><text fill="#000000" font-family="sans-serif" font-size="14" lengthAdjust="spacing" textLength="86" x="757" y="437.0452">code : String</text><line style="stroke:#181818;stroke-width:1.0;stroke-dasharray:1.0,2.0;" x1="738" x2="892" y1="443.9983" y2="443.9983"/><ellipse cx="748" cy="457.7424" fill="#000000" rx="3" ry="3" style="stroke:#000000;stroke-width:1.0;"/><text fill="#000000" font-family="sans-serif" font-size="14" lengthAdjust="spacing" textLength="130" x="757" y="461.5334">description : String</text></g><!--class AccountRole--><g id="elem_AccountRole"><rect codeLine="22" fill="#F1F1F1" height="130.4414" id="AccountRole" rx="2.5" ry="2.5" style="stroke:#181818;stroke-width:0.5;" width="217" x="706.5" y="221.78"/><ellipse cx="767.75" cy="237.78" fill="#ADD1B2" rx="11" ry="11" style="stroke:#181818;stroke-width:1.0;"/><path d="M770.7231,243.4231 Q770.1421,243.7219 769.5029,243.8713 Q768.8638,244.0207 768.1582,244.0207 Q765.6514,244.0207 764.3315,242.3689 Q763.0117,240.717 763.0117,237.5959 Q763.0117,234.4665 764.3315,232.8147 Q765.6514,231.1628 768.1582,231.1628 Q768.8638,231.1628 769.5112,231.3122 Q770.1587,231.4616 770.7231,231.7605 L770.7231,234.4831 Q770.0923,233.9021 769.4988,233.6323 Q768.9053,233.3625 768.2744,233.3625 Q766.9297,233.3625 766.2449,234.4292 Q765.5601,235.4958 765.5601,237.5959 Q765.5601,239.6877 766.2449,240.7544 Q766.9297,241.821 768.2744,241.821 Q768.9053,241.821 769.4988,241.5512 Q770.0923,241.2815 770.7231,240.7004 Z " fill="#000000"/><text fill="#000000" font-family="sans-serif" font-size="14" lengthAdjust="spacing" textLength="86" x="788.25" y="243.071">AccountRole</text><line style="stroke:#181818;stroke-width:0.5;" x1="707.5" x2="922.5" y1="253.78" y2="253.78"/><ellipse cx="717.5" cy="267.5241" fill="#000000" rx="3" ry="3" style="stroke:#000000;stroke-width:1.0;"/><text fill="#000000" font-family="sans-serif" font-size="14" lengthAdjust="spacing" textLength="120" x="726.5" y="271.3152">accountId : String</text><ellipse cx="717.5" cy="284.0124" fill="#000000" rx="3" ry="3" style="stroke:#000000;stroke-width:1.0;"/><text fill="#000000" font-family="sans-serif" font-size="14" lengthAdjust="spacing" textLength="130" x="726.5" y="287.8034">customerId : String</text><ellipse cx="717.5" cy="300.5007" fill="#000000" rx="3" ry="3" style="stroke:#000000;stroke-width:1.0;"/><text fill="#000000" font-family="sans-serif" font-size="14" lengthAdjust="spacing" textLength="191" x="726.5" y="304.2917">roleType : AccountRoleType</text><ellipse cx="717.5" cy="316.989" fill="#000000" rx="3" ry="3" style="stroke:#000000;stroke-width:1.0;"/><text fill="#000000" font-family="sans-serif" font-size="14" lengthAdjust="spacing" textLength="107" x="726.5" y="320.78">fromDate : Date</text><line style="stroke:#181818;stroke-width:1.0;stroke-dasharray:1.0,2.0;" x1="707.5" x2="922.5" y1="327.7331" y2="327.7331"/><text fill="#000000" font-family="sans-serif" font-size="14" lengthAdjust="spacing" textLength="103" x="712.5" y="345.2683">thruDate : Date</text></g><!--class AccountRoleType--><g id="elem_AccountRoleType"><rect codeLine="31" fill="#F1F1F1" height="80.9766" id="AccountRoleType" rx="2.5" ry="2.5" style="stroke:#181818;stroke-width:0.5;" width="156" x="1000.5" y="246.51"/><ellipse cx="1017.75" cy="262.51" fill="#ADD1B2" rx="11" ry="11" style="stroke:#181818;stroke-width:1.0;"/><path d="M1020.7231,268.1531 Q1020.1421,268.4519 1019.5029,268.6013 Q1018.8638,268.7507 1018.1582,268.7507 Q1015.6514,268.7507 1014.3315,267.0989 Q1013.0117,265.447 1013.0117,262.3259 Q1013.0117,259.1965 1014.3315,257.5447 Q1015.6514,255.8928 1018.1582,255.8928 Q1018.8638,255.8928 1019.5112,256.0422 Q1020.1587,256.1916 1020.7231,256.4905 L1020.7231,259.2131 Q1020.0923,258.6321 1019.4988,258.3623 Q1018.9053,258.0925 1018.2744,258.0925 Q1016.9297,258.0925 1016.2449,259.1592 Q1015.5601,260.2258 1015.5601,262.3259 Q1015.5601,264.4177 1016.2449,265.4844 Q1016.9297,266.551 1018.2744,266.551 Q1018.9053,266.551 1019.4988,266.2812 Q1020.0923,266.0115 1020.7231,265.4304 Z " fill="#000000"/><text fill="#000000" font-family="sans-serif" font-size="14" lengthAdjust="spacing" textLength="119" x="1032.25" y="267.801">AccountRoleType</text><line style="stroke:#181818;stroke-width:0.5;" x1="1001.5" x2="1155.5" y1="278.51" y2="278.51"/><ellipse cx="1011.5" cy="292.2541" fill="#000000" rx="3" ry="3" style="stroke:#000000;stroke-width:1.0;"/><text fill="#000000" font-family="sans-serif" font-size="14" lengthAdjust="spacing" textLength="86" x="1020.5" y="296.0452">code : String</text><line style="stroke:#181818;stroke-width:1.0;stroke-dasharray:1.0,2.0;" x1="1001.5" x2="1155.5" y1="302.9983" y2="302.9983"/><ellipse cx="1011.5" cy="316.7424" fill="#000000" rx="3" ry="3" style="stroke:#000000;stroke-width:1.0;"/><text fill="#000000" font-family="sans-serif" font-size="14" lengthAdjust="spacing" textLength="130" x="1020.5" y="320.5334">description : String</text></g><!--class AccountStatus--><g id="elem_AccountStatus"><rect codeLine="37" fill="#F1F1F1" height="97.4648" id="AccountStatus" rx="2.5" ry="2.5" style="stroke:#181818;stroke-width:0.5;" width="243" x="693.5" y="619.27"/><ellipse cx="761.75" cy="635.27" fill="#ADD1B2" rx="11" ry="11" style="stroke:#181818;stroke-width:1.0;"/><path d="M764.7231,640.9131 Q764.1421,641.2119 763.5029,641.3613 Q762.8638,641.5107 762.1582,641.5107 Q759.6514,641.5107 758.3315,639.8589 Q757.0117,638.207 757.0117,635.0859 Q757.0117,631.9565 758.3315,630.3047 Q759.6514,628.6528 762.1582,628.6528 Q762.8638,628.6528 763.5112,628.8022 Q764.1587,628.9516 764.7231,629.2505 L764.7231,631.9731 Q764.0923,631.3921 763.4988,631.1223 Q762.9053,630.8525 762.2744,630.8525 Q760.9297,630.8525 760.2449,631.9192 Q759.5601,632.9858 759.5601,635.0859 Q759.5601,637.1777 760.2449,638.2444 Q760.9297,639.311 762.2744,639.311 Q762.9053,639.311 763.4988,639.0412 Q764.0923,638.7715 764.7231,638.1904 Z " fill="#000000"/><text fill="#000000" font-family="sans-serif" font-size="14" lengthAdjust="spacing" textLength="98" x="782.25" y="640.561">AccountStatus</text><line style="stroke:#181818;stroke-width:0.5;" x1="694.5" x2="935.5" y1="651.27" y2="651.27"/><ellipse cx="704.5" cy="665.0141" fill="#000000" rx="3" ry="3" style="stroke:#000000;stroke-width:1.0;"/><text fill="#000000" font-family="sans-serif" font-size="14" lengthAdjust="spacing" textLength="120" x="713.5" y="668.8052">accountId : String</text><ellipse cx="704.5" cy="681.5024" fill="#000000" rx="3" ry="3" style="stroke:#000000;stroke-width:1.0;"/><text fill="#000000" font-family="sans-serif" font-size="14" lengthAdjust="spacing" textLength="217" x="713.5" y="685.2934">statusType : AccountStatusType</text><ellipse cx="704.5" cy="697.9907" fill="#000000" rx="3" ry="3" style="stroke:#000000;stroke-width:1.0;"/><text fill="#000000" font-family="sans-serif" font-size="14" lengthAdjust="spacing" textLength="119" x="713.5" y="701.7817">datetime : Instant</text><line style="stroke:#181818;stroke-width:1.0;stroke-dasharray:1.0,2.0;" x1="694.5" x2="935.5" y1="708.7348" y2="708.7348"/></g><!--class AccountStatusType--><g id="elem_AccountStatusType"><rect codeLine="44" fill="#F1F1F1" height="80.9766" id="AccountStatusType" rx="2.5" ry="2.5" style="stroke:#181818;stroke-width:0.5;" width="163" x="997" y="627.51"/><ellipse cx="1012" cy="643.51" fill="#ADD1B2" rx="11" ry="11" style="stroke:#181818;stroke-width:1.0;"/><path d="M1014.9731,649.1531 Q1014.3921,649.4519 1013.7529,649.6013 Q1013.1138,649.7507 1012.4082,649.7507 Q1009.9014,649.7507 1008.5815,648.0989 Q1007.2617,646.447 1007.2617,643.3259 Q1007.2617,640.1965 1008.5815,638.5447 Q1009.9014,636.8928 1012.4082,636.8928 Q1013.1138,636.8928 1013.7612,637.0422 Q1014.4087,637.1916 1014.9731,637.4905 L1014.9731,640.2131 Q1014.3423,639.6321 1013.7488,639.3623 Q1013.1553,639.0925 1012.5244,639.0925 Q1011.1797,639.0925 1010.4949,640.1592 Q1009.8101,641.2258 1009.8101,643.3259 Q1009.8101,645.4177 1010.4949,646.4844 Q1011.1797,647.551 1012.5244,647.551 Q1013.1553,647.551 1013.7488,647.2812 Q1014.3423,647.0115 1014.9731,646.4304 Z " fill="#000000"/><text fill="#000000" font-family="sans-serif" font-size="14" lengthAdjust="spacing" textLength="131" x="1026" y="648.801">AccountStatusType</text><line style="stroke:#181818;stroke-width:0.5;" x1="998" x2="1159" y1="659.51" y2="659.51"/><ellipse cx="1008" cy="673.2541" fill="#000000" rx="3" ry="3" style="stroke:#000000;stroke-width:1.0;"/><text fill="#000000" font-family="sans-serif" font-size="14" lengthAdjust="spacing" textLength="86" x="1017" y="677.0452">code : String</text><line style="stroke:#181818;stroke-width:1.0;stroke-dasharray:1.0,2.0;" x1="998" x2="1159" y1="683.9983" y2="683.9983"/><ellipse cx="1008" cy="697.7424" fill="#000000" rx="3" ry="3" style="stroke:#000000;stroke-width:1.0;"/><text fill="#000000" font-family="sans-serif" font-size="14" lengthAdjust="spacing" textLength="130" x="1017" y="701.5334">description : String</text></g><!--class AccountProduct--><g id="elem_AccountProduct"><rect codeLine="50" fill="#F1F1F1" height="113.9531" id="AccountProduct" rx="2.5" ry="2.5" style="stroke:#181818;stroke-width:0.5;" width="146" x="742" y="752.02"/><ellipse cx="759.25" cy="768.02" fill="#ADD1B2" rx="11" ry="11" style="stroke:#181818;stroke-width:1.0;"/><path d="M762.2231,773.6631 Q761.6421,773.9619 761.0029,774.1113 Q760.3638,774.2607 759.6582,774.2607 Q757.1514,774.2607 755.8315,772.6089 Q754.5117,770.957 754.5117,767.8359 Q754.5117,764.7065 755.8315,763.0547 Q757.1514,761.4028 759.6582,761.4028 Q760.3638,761.4028 761.0112,761.5522 Q761.6587,761.7016 762.2231,762.0005 L762.2231,764.7231 Q761.5923,764.1421 760.9988,763.8723 Q760.4053,763.6025 759.7744,763.6025 Q758.4297,763.6025 757.7449,764.6692 Q757.0601,765.7358 757.0601,767.8359 Q757.0601,769.9277 757.7449,770.9944 Q758.4297,772.061 759.7744,772.061 Q760.4053,772.061 760.9988,771.7912 Q761.5923,771.5215 762.2231,770.9404 Z " fill="#000000"/><text fill="#000000" font-family="sans-serif" font-size="14" lengthAdjust="spacing" textLength="109" x="773.75" y="773.311">AccountProduct</text><line style="stroke:#181818;stroke-width:0.5;" x1="743" x2="887" y1="784.02" y2="784.02"/><ellipse cx="753" cy="797.7641" fill="#000000" rx="3" ry="3" style="stroke:#000000;stroke-width:1.0;"/><text fill="#000000" font-family="sans-serif" font-size="14" lengthAdjust="spacing" textLength="120" x="762" y="801.5552">accountId : String</text><ellipse cx="753" cy="814.2524" fill="#000000" rx="3" ry="3" style="stroke:#000000;stroke-width:1.0;"/><text fill="#000000" font-family="sans-serif" font-size="14" lengthAdjust="spacing" textLength="120" x="762" y="818.0434">productId : String</text><ellipse cx="753" cy="830.7407" fill="#000000" rx="3" ry="3" style="stroke:#000000;stroke-width:1.0;"/><text fill="#000000" font-family="sans-serif" font-size="14" lengthAdjust="spacing" textLength="107" x="762" y="834.5317">fromDate : Date</text><line style="stroke:#181818;stroke-width:1.0;stroke-dasharray:1.0,2.0;" x1="743" x2="887" y1="841.4848" y2="841.4848"/><text fill="#000000" font-family="sans-serif" font-size="14" lengthAdjust="spacing" textLength="103" x="748" y="859.02">thruDate : Date</text></g><!--class Balance--><g id="elem_Balance"><rect codeLine="58" fill="#F1F1F1" height="80.9766" id="Balance" rx="2.5" ry="2.5" style="stroke:#181818;stroke-width:0.5;" width="166" x="732" y="503.51"/><ellipse cx="784.75" cy="519.51" fill="#ADD1B2" rx="11" ry="11" style="stroke:#181818;stroke-width:1.0;"/><path d="M787.7231,525.1531 Q787.1421,525.4519 786.5029,525.6013 Q785.8638,525.7507 785.1582,525.7507 Q782.6514,525.7507 781.3315,524.0989 Q780.0117,522.447 780.0117,519.3259 Q780.0117,516.1965 781.3315,514.5447 Q782.6514,512.8928 785.1582,512.8928 Q785.8638,512.8928 786.5112,513.0422 Q787.1587,513.1916 787.7231,513.4905 L787.7231,516.2131 Q787.0923,515.6321 786.4988,515.3623 Q785.9053,515.0925 785.2744,515.0925 Q783.9297,515.0925 783.2449,516.1592 Q782.5601,517.2258 782.5601,519.3259 Q782.5601,521.4177 783.2449,522.4844 Q783.9297,523.551 785.2744,523.551 Q785.9053,523.551 786.4988,523.2812 Q787.0923,523.0115 787.7231,522.4304 Z " fill="#000000"/><text fill="#000000" font-family="sans-serif" font-size="14" lengthAdjust="spacing" textLength="52" x="805.25" y="524.801">Balance</text><line style="stroke:#181818;stroke-width:0.5;" x1="733" x2="897" y1="535.51" y2="535.51"/><ellipse cx="743" cy="549.2541" fill="#000000" rx="3" ry="3" style="stroke:#000000;stroke-width:1.0;"/><text fill="#000000" font-family="sans-serif" font-size="14" lengthAdjust="spacing" textLength="120" x="752" y="553.0452">accountId : String</text><line style="stroke:#181818;stroke-width:1.0;stroke-dasharray:1.0,2.0;" x1="733" x2="897" y1="559.9983" y2="559.9983"/><ellipse cx="743" cy="573.7424" fill="#000000" rx="3" ry="3" style="stroke:#000000;stroke-width:1.0;"/><text fill="#000000" font-family="sans-serif" font-size="14" lengthAdjust="spacing" textLength="140" x="752" y="577.5334">amount : BigDecimal</text></g><!--class Customer--><g id="elem_Customer"><rect codeLine="75" fill="#F1F1F1" height="97.4648" id="Customer" rx="2.5" ry="2.5" style="stroke:#181818;stroke-width:0.5;" width="198" x="372" y="47.27"/><ellipse cx="433.25" cy="63.27" fill="#ADD1B2" rx="11" ry="11" style="stroke:#181818;stroke-width:1.0;"/><path d="M436.2231,68.9131 Q435.6421,69.2119 435.0029,69.3613 Q434.3638,69.5107 433.6582,69.5107 Q431.1514,69.5107 429.8315,67.8589 Q428.5117,66.207 428.5117,63.0859 Q428.5117,59.9565 429.8315,58.3047 Q431.1514,56.6528 433.6582,56.6528 Q434.3638,56.6528 435.0112,56.8022 Q435.6587,56.9516 436.2231,57.2505 L436.2231,59.9731 Q435.5923,59.3921 434.9988,59.1223 Q434.4053,58.8525 433.7744,58.8525 Q432.4297,58.8525 431.7449,59.9192 Q431.0601,60.9858 431.0601,63.0859 Q431.0601,65.1777 431.7449,66.2444 Q432.4297,67.311 433.7744,67.311 Q434.4053,67.311 434.9988,67.0412 Q435.5923,66.7715 436.2231,66.1904 Z " fill="#000000"/><text fill="#000000" font-family="sans-serif" font-size="14" lengthAdjust="spacing" textLength="67" x="453.75" y="68.561">Customer</text><line style="stroke:#181818;stroke-width:0.5;" x1="373" x2="569" y1="79.27" y2="79.27"/><ellipse cx="383" cy="93.0141" fill="#000000" rx="3" ry="3" style="stroke:#000000;stroke-width:1.0;"/><text fill="#000000" font-family="sans-serif" font-size="14" lengthAdjust="spacing" textLength="130" x="392" y="96.8052">customerId : String</text><line style="stroke:#181818;stroke-width:1.0;stroke-dasharray:1.0,2.0;" x1="373" x2="569" y1="103.7583" y2="103.7583"/><ellipse cx="383" cy="117.5024" fill="#000000" rx="3" ry="3" style="stroke:#000000;stroke-width:1.0;"/><text fill="#000000" font-family="sans-serif" font-size="14" lengthAdjust="spacing" textLength="172" x="392" y="121.2934">customerNumber : String</text><ellipse cx="383" cy="133.9907" fill="#000000" rx="3" ry="3" style="stroke:#000000;stroke-width:1.0;"/><text fill="#000000" font-family="sans-serif" font-size="14" lengthAdjust="spacing" textLength="156" x="392" y="137.7817">name : CustomerName</text></g><!--class CustomerName--><g id="elem_CustomerName"><rect codeLine="82" fill="#F1F1F1" height="106.0859" id="CustomerName" rx="2.5" ry="2.5" style="stroke:#181818;stroke-width:0.5;" width="165" x="732.5" y="40.96"/><ellipse cx="759.65" cy="61.2705" fill="#ADD1B2" rx="11" ry="11" style="stroke:#181818;stroke-width:1.0;"/><path d="M762.6231,66.9136 Q762.0421,67.2124 761.4029,67.3619 Q760.7638,67.5113 760.0582,67.5113 Q757.5514,67.5113 756.2315,65.8594 Q754.9117,64.2076 754.9117,61.0865 Q754.9117,57.9571 756.2315,56.3052 Q757.5514,54.6534 760.0582,54.6534 Q760.7638,54.6534 761.4112,54.8028 Q762.0587,54.9522 762.6231,55.251 L762.6231,57.9737 Q761.9923,57.3926 761.3988,57.1228 Q760.8053,56.8531 760.1744,56.8531 Q758.8297,56.8531 758.1449,57.9197 Q757.4601,58.9864 757.4601,61.0865 Q757.4601,63.1783 758.1449,64.2449 Q758.8297,65.3116 760.1744,65.3116 Q760.8053,65.3116 761.3988,65.0418 Q761.9923,64.772 762.6231,64.191 Z " fill="#000000"/><text fill="#000000" font-family="sans-serif" font-size="12" font-style="italic" lengthAdjust="spacing" textLength="82" x="788.35" y="57.5616">&#171;value object&#187;</text><text fill="#000000" font-family="sans-serif" font-size="14" lengthAdjust="spacing" textLength="106" x="776.35" y="73.628">CustomerName</text><line style="stroke:#181818;stroke-width:0.5;" x1="733.5" x2="896.5" y1="81.5811" y2="81.5811"/><ellipse cx="743.5" cy="95.3252" fill="#000000" rx="3" ry="3" style="stroke:#000000;stroke-width:1.0;"/><text fill="#000000" font-family="sans-serif" font-size="14" lengthAdjust="spacing" textLength="119" x="752.5" y="99.1163">firstName : String</text><ellipse cx="743.5" cy="111.8135" fill="#000000" rx="3" ry="3" style="stroke:#000000;stroke-width:1.0;"/><text fill="#000000" font-family="sans-serif" font-size="14" lengthAdjust="spacing" textLength="116" x="752.5" y="115.6045">lastName : String</text><text fill="#000000" font-family="sans-serif" font-size="14" lengthAdjust="spacing" textLength="139" x="752.5" y="132.0928">middleName : String</text><line style="stroke:#181818;stroke-width:0.5;" x1="733.5" x2="896.5" y1="139.0459" y2="139.0459"/></g><!--class Product--><g id="elem_Product"><rect codeLine="92" fill="#F1F1F1" height="130.4414" id="Product" rx="2.5" ry="2.5" style="stroke:#181818;stroke-width:0.5;" width="211" x="365.5" y="940.78"/><ellipse cx="440.25" cy="956.78" fill="#ADD1B2" rx="11" ry="11" style="stroke:#181818;stroke-width:1.0;"/><path d="M443.2231,962.4231 Q442.6421,962.7219 442.0029,962.8713 Q441.3638,963.0207 440.6582,963.0207 Q438.1514,963.0207 436.8315,961.3689 Q435.5117,959.717 435.5117,956.5959 Q435.5117,953.4665 436.8315,951.8147 Q438.1514,950.1628 440.6582,950.1628 Q441.3638,950.1628 442.0112,950.3122 Q442.6587,950.4616 443.2231,950.7605 L443.2231,953.4831 Q442.5923,952.9021 441.9988,952.6323 Q441.4053,952.3625 440.7744,952.3625 Q439.4297,952.3625 438.7449,953.4292 Q438.0601,954.4958 438.0601,956.5959 Q438.0601,958.6877 438.7449,959.7544 Q439.4297,960.821 440.7744,960.821 Q441.4053,960.821 441.9988,960.5512 Q442.5923,960.2815 443.2231,959.7004 Z " fill="#000000"/><text fill="#000000" font-family="sans-serif" font-size="14" lengthAdjust="spacing" textLength="53" x="460.75" y="962.071">Product</text><line style="stroke:#181818;stroke-width:0.5;" x1="366.5" x2="575.5" y1="972.78" y2="972.78"/><ellipse cx="376.5" cy="986.5241" fill="#000000" rx="3" ry="3" style="stroke:#000000;stroke-width:1.0;"/><text fill="#000000" font-family="sans-serif" font-size="14" lengthAdjust="spacing" textLength="120" x="385.5" y="990.3152">productId : String</text><line style="stroke:#181818;stroke-width:1.0;stroke-dasharray:1.0,2.0;" x1="366.5" x2="575.5" y1="997.2683" y2="997.2683"/><ellipse cx="376.5" cy="1011.0124" fill="#000000" rx="3" ry="3" style="stroke:#000000;stroke-width:1.0;"/><text fill="#000000" font-family="sans-serif" font-size="14" lengthAdjust="spacing" textLength="162" x="385.5" y="1014.8034">productNumber : String</text><ellipse cx="376.5" cy="1027.5007" fill="#000000" rx="3" ry="3" style="stroke:#000000;stroke-width:1.0;"/><text fill="#000000" font-family="sans-serif" font-size="14" lengthAdjust="spacing" textLength="91" x="385.5" y="1031.2917">name : String</text><ellipse cx="376.5" cy="1043.989" fill="#000000" rx="3" ry="3" style="stroke:#000000;stroke-width:1.0;"/><text fill="#000000" font-family="sans-serif" font-size="14" lengthAdjust="spacing" textLength="130" x="385.5" y="1047.78">description : String</text><ellipse cx="376.5" cy="1060.4773" fill="#000000" rx="3" ry="3" style="stroke:#000000;stroke-width:1.0;"/><text fill="#000000" font-family="sans-serif" font-size="14" lengthAdjust="spacing" textLength="185" x="385.5" y="1064.2683">productType : ProductType</text></g><!--class ProductType--><g id="elem_ProductType"><rect codeLine="101" fill="#F1F1F1" height="80.9766" id="ProductType" rx="2.5" ry="2.5" style="stroke:#181818;stroke-width:0.5;" width="156" x="737" y="965.51"/><ellipse cx="769.1" cy="981.51" fill="#ADD1B2" rx="11" ry="11" style="stroke:#181818;stroke-width:1.0;"/><path d="M772.0731,987.1531 Q771.4921,987.4519 770.8529,987.6013 Q770.2138,987.7507 769.5082,987.7507 Q767.0014,987.7507 765.6815,986.0989 Q764.3617,984.447 764.3617,981.3259 Q764.3617,978.1965 765.6815,976.5447 Q767.0014,974.8928 769.5082,974.8928 Q770.2138,974.8928 770.8612,975.0422 Q771.5087,975.1916 772.0731,975.4905 L772.0731,978.2131 Q771.4423,977.6321 770.8488,977.3623 Q770.2553,977.0925 769.6244,977.0925 Q768.2797,977.0925 767.5949,978.1592 Q766.9101,979.2258 766.9101,981.3259 Q766.9101,983.4177 767.5949,984.4844 Q768.2797,985.551 769.6244,985.551 Q770.2553,985.551 770.8488,985.2812 Q771.4423,985.0115 772.0731,984.4304 Z " fill="#000000"/><text fill="#000000" font-family="sans-serif" font-size="14" lengthAdjust="spacing" textLength="86" x="786.9" y="986.801">ProductType</text><line style="stroke:#181818;stroke-width:0.5;" x1="738" x2="892" y1="997.51" y2="997.51"/><ellipse cx="748" cy="1011.2541" fill="#000000" rx="3" ry="3" style="stroke:#000000;stroke-width:1.0;"/><text fill="#000000" font-family="sans-serif" font-size="14" lengthAdjust="spacing" textLength="86" x="757" y="1015.0452">code : String</text><line style="stroke:#181818;stroke-width:1.0;stroke-dasharray:1.0,2.0;" x1="738" x2="892" y1="1021.9983" y2="1021.9983"/><ellipse cx="748" cy="1035.7424" fill="#000000" rx="3" ry="3" style="stroke:#000000;stroke-width:1.0;"/><text fill="#000000" font-family="sans-serif" font-size="14" lengthAdjust="spacing" textLength="130" x="757" y="1039.5334">description : String</text></g><!--class AccountTransaction--><g id="elem_AccountTransaction"><rect codeLine="111" fill="#F1F1F1" height="146.9297" id="AccountTransaction" rx="2.5" ry="2.5" style="stroke:#181818;stroke-width:0.5;" width="227" x="22" y="1145.54"/><ellipse cx="63.1" cy="1161.54" fill="#ADD1B2" rx="11" ry="11" style="stroke:#181818;stroke-width:1.0;"/><path d="M66.0731,1167.1831 Q65.4921,1167.4819 64.8529,1167.6313 Q64.2138,1167.7807 63.5082,1167.7807 Q61.0014,1167.7807 59.6815,1166.1289 Q58.3617,1164.477 58.3617,1161.3559 Q58.3617,1158.2265 59.6815,1156.5747 Q61.0014,1154.9228 63.5082,1154.9228 Q64.2138,1154.9228 64.8612,1155.0722 Q65.5087,1155.2216 66.0731,1155.5205 L66.0731,1158.2431 Q65.4423,1157.6621 64.8488,1157.3923 Q64.2553,1157.1225 63.6244,1157.1225 Q62.2797,1157.1225 61.5949,1158.1892 Q60.9101,1159.2558 60.9101,1161.3559 Q60.9101,1163.4477 61.5949,1164.5144 Q62.2797,1165.581 63.6244,1165.581 Q64.2553,1165.581 64.8488,1165.3112 Q65.4423,1165.0415 66.0731,1164.4604 Z " fill="#000000"/><text fill="#000000" font-family="sans-serif" font-size="14" lengthAdjust="spacing" textLength="137" x="82.9" y="1166.831">AccountTransaction</text><line style="stroke:#181818;stroke-width:0.5;" x1="23" x2="248" y1="1177.54" y2="1177.54"/><ellipse cx="33" cy="1191.2841" fill="#000000" rx="3" ry="3" style="stroke:#000000;stroke-width:1.0;"/><text fill="#000000" font-family="sans-serif" font-size="14" lengthAdjust="spacing" textLength="201" x="42" y="1195.0752">accountTransactionId : String</text><line style="stroke:#181818;stroke-width:1.0;stroke-dasharray:1.0,2.0;" x1="23" x2="248" y1="1202.0283" y2="1202.0283"/><ellipse cx="33" cy="1215.7724" fill="#000000" rx="3" ry="3" style="stroke:#000000;stroke-width:1.0;"/><text fill="#000000" font-family="sans-serif" font-size="14" lengthAdjust="spacing" textLength="120" x="42" y="1219.5634">accountId : String</text><ellipse cx="33" cy="1232.2607" fill="#000000" rx="3" ry="3" style="stroke:#000000;stroke-width:1.0;"/><text fill="#000000" font-family="sans-serif" font-size="14" lengthAdjust="spacing" textLength="151" x="42" y="1236.0517">transactionDate : Date</text><text fill="#000000" font-family="sans-serif" font-size="14" lengthAdjust="spacing" textLength="125" x="42" y="1252.54">entryDate : Instant</text><text fill="#000000" font-family="sans-serif" font-size="14" lengthAdjust="spacing" textLength="120" x="42" y="1269.0283">postDate : Instant</text><text fill="#000000" font-family="sans-serif" font-size="14" lengthAdjust="spacing" textLength="140" x="42" y="1285.5166">amount : BigDecimal</text></g><!--class AccountTransactionStatus--><g id="elem_AccountTransactionStatus"><rect codeLine="121" fill="#F1F1F1" height="97.4648" id="AccountTransactionStatus" rx="2.5" ry="2.5" style="stroke:#181818;stroke-width:0.5;" width="324" x="309" y="1170.27"/><ellipse cx="377.25" cy="1186.27" fill="#ADD1B2" rx="11" ry="11" style="stroke:#181818;stroke-width:1.0;"/><path d="M380.2231,1191.9131 Q379.6421,1192.2119 379.0029,1192.3613 Q378.3638,1192.5107 377.6582,1192.5107 Q375.1514,1192.5107 373.8315,1190.8589 Q372.5117,1189.207 372.5117,1186.0859 Q372.5117,1182.9565 373.8315,1181.3047 Q375.1514,1179.6528 377.6582,1179.6528 Q378.3638,1179.6528 379.0112,1179.8022 Q379.6587,1179.9516 380.2231,1180.2505 L380.2231,1182.9731 Q379.5923,1182.3921 378.9988,1182.1223 Q378.4053,1181.8525 377.7744,1181.8525 Q376.4297,1181.8525 375.7449,1182.9192 Q375.0601,1183.9858 375.0601,1186.0859 Q375.0601,1188.1777 375.7449,1189.2444 Q376.4297,1190.311 377.7744,1190.311 Q378.4053,1190.311 378.9988,1190.0412 Q379.5923,1189.7715 380.2231,1189.1904 Z " fill="#000000"/><text fill="#000000" font-family="sans-serif" font-size="14" lengthAdjust="spacing" textLength="179" x="397.75" y="1191.561">AccountTransactionStatus</text><line style="stroke:#181818;stroke-width:0.5;" x1="310" x2="632" y1="1202.27" y2="1202.27"/><ellipse cx="320" cy="1216.0141" fill="#000000" rx="3" ry="3" style="stroke:#000000;stroke-width:1.0;"/><text fill="#000000" font-family="sans-serif" font-size="14" lengthAdjust="spacing" textLength="201" x="329" y="1219.8052">accountTransactionId : String</text><ellipse cx="320" cy="1232.5024" fill="#000000" rx="3" ry="3" style="stroke:#000000;stroke-width:1.0;"/><text fill="#000000" font-family="sans-serif" font-size="14" lengthAdjust="spacing" textLength="298" x="329" y="1236.2934">statusType : AccountTransactionStatusType</text><ellipse cx="320" cy="1248.9907" fill="#000000" rx="3" ry="3" style="stroke:#000000;stroke-width:1.0;"/><text fill="#000000" font-family="sans-serif" font-size="14" lengthAdjust="spacing" textLength="119" x="329" y="1252.7817">datetime : Instant</text><line style="stroke:#181818;stroke-width:1.0;stroke-dasharray:1.0,2.0;" x1="310" x2="632" y1="1259.7348" y2="1259.7348"/></g><!--class AccountTransactionStatusType--><g id="elem_AccountTransactionStatusType"><rect codeLine="128" fill="#F1F1F1" height="80.9766" id="AccountTransactionStatusType" rx="2.5" ry="2.5" style="stroke:#181818;stroke-width:0.5;" width="244" x="693" y="1178.51"/><ellipse cx="708" cy="1194.51" fill="#ADD1B2" rx="11" ry="11" style="stroke:#181818;stroke-width:1.0;"/><path d="M710.9731,1200.1531 Q710.3921,1200.4519 709.7529,1200.6013 Q709.1138,1200.7507 708.4082,1200.7507 Q705.9014,1200.7507 704.5815,1199.0989 Q703.2617,1197.447 703.2617,1194.3259 Q703.2617,1191.1965 704.5815,1189.5447 Q705.9014,1187.8928 708.4082,1187.8928 Q709.1138,1187.8928 709.7612,1188.0422 Q710.4087,1188.1916 710.9731,1188.4905 L710.9731,1191.2131 Q710.3423,1190.6321 709.7488,1190.3623 Q709.1553,1190.0925 708.5244,1190.0925 Q707.1797,1190.0925 706.4949,1191.1592 Q705.8101,1192.2258 705.8101,1194.3259 Q705.8101,1196.4177 706.4949,1197.4844 Q707.1797,1198.551 708.5244,1198.551 Q709.1553,1198.551 709.7488,1198.2812 Q710.3423,1198.0115 710.9731,1197.4304 Z " fill="#000000"/><text fill="#000000" font-family="sans-serif" font-size="14" lengthAdjust="spacing" textLength="212" x="722" y="1199.801">AccountTransactionStatusType</text><line style="stroke:#181818;stroke-width:0.5;" x1="694" x2="936" y1="1210.51" y2="1210.51"/><ellipse cx="704" cy="1224.2541" fill="#000000" rx="3" ry="3" style="stroke:#000000;stroke-width:1.0;"/><text fill="#000000" font-family="sans-serif" font-size="14" lengthAdjust="spacing" textLength="86" x="713" y="1228.0452">code : String</text><line style="stroke:#181818;stroke-width:1.0;stroke-dasharray:1.0,2.0;" x1="694" x2="936" y1="1234.9983" y2="1234.9983"/><ellipse cx="704" cy="1248.7424" fill="#000000" rx="3" ry="3" style="stroke:#000000;stroke-width:1.0;"/><text fill="#000000" font-family="sans-serif" font-size="14" lengthAdjust="spacing" textLength="130" x="713" y="1252.5334">description : String</text></g><!--reverse link Account to AccountRole--><g id="link_Account_AccountRole"><path codeLine="65" d="M541.632,523.0616 C584.002,474.4216 634.99,419.84 693,370 C699.86,364.11 707.14,358.25 714.6,352.54 " fill="none" id="Account-backto-AccountRole" style="stroke:#181818;stroke-width:1.0;"/><polygon fill="#181818" points="533.75,532.11,540.7071,530.2131,541.632,523.0616,534.6749,524.9585,533.75,532.11" style="stroke:#181818;stroke-width:1.0;"/></g><!--link AccountRole to AccountRoleType--><g id="link_AccountRole_AccountRoleType"><path codeLine="66" d="M923.87,287 C949.48,287 970.29,287 994.22,287 " fill="none" id="AccountRole-to-AccountRoleType" style="stroke:#181818;stroke-width:1.0;stroke-dasharray:7.0,7.0;"/><polygon fill="#181818" points="1000.22,287,991.22,283,995.22,287,991.22,291,1000.22,287" style="stroke:#181818;stroke-width:1.0;"/></g><!--reverse link Account to AccountStatus--><g id="link_Account_AccountStatus"><path codeLine="67" d="M590.1477,627.4195 C626.5177,634.0095 655.66,639.3 693.1,646.08 " fill="none" id="Account-backto-AccountStatus" style="stroke:#181818;stroke-width:1.0;"/><polygon fill="#181818" points="578.34,625.28,583.5307,630.2857,590.1477,627.4195,584.957,622.4138,578.34,625.28" style="stroke:#181818;stroke-width:1.0;"/></g><!--link AccountStatus to AccountStatusType--><g id="link_AccountStatus_AccountStatusType"><path codeLine="68" d="M936.8,668 C957.14,668 971.8,668 990.81,668 " fill="none" id="AccountStatus-to-AccountStatusType" style="stroke:#181818;stroke-width:1.0;stroke-dasharray:7.0,7.0;"/><polygon fill="#181818" points="996.81,668,987.81,664,991.81,668,987.81,672,996.81,668" style="stroke:#181818;stroke-width:1.0;"/></g><!--link Account to AccountType--><g id="link_Account_AccountType"><path codeLine="69" d="M578.49,546.77 C614.63,527.04 655.38,505.21 693,486 C707,478.85 716.6275,474.0403 731.1775,467.0103 " fill="none" id="Account-to-AccountType" style="stroke:#181818;stroke-width:1.0;stroke-dasharray:7.0,7.0;"/><polygon fill="#181818" points="736.58,464.4,726.7361,464.7138,732.078,466.5752,730.2165,471.917,736.58,464.4" style="stroke:#181818;stroke-width:1.0;"/></g><!--reverse link Account to AccountProduct--><g id="link_Account_AccountProduct"><path codeLine="70" d="M588.6593,675.2447 C641.6993,706.7247 694.15,737.86 741.57,766.01 " fill="none" id="Account-backto-AccountProduct" style="stroke:#181818;stroke-width:1.0;"/><polygon fill="#181818" points="578.34,669.12,581.4581,675.6221,588.6593,675.2447,585.5412,668.7426,578.34,669.12" style="stroke:#181818;stroke-width:1.0;"/></g><!--reverse link Account to Balance--><g id="link_Account_Balance"><path codeLine="71" d="M590.1474,584.5788 C639.5574,575.6188 685.61,567.28 731.63,558.93 " fill="none" id="Account-backto-Balance" style="stroke:#181818;stroke-width:1.0;"/><polygon fill="none" points="578.34,586.72,584.9574,589.5852,590.1474,584.5788,583.53,581.7136,578.34,586.72" style="stroke:#181818;stroke-width:1.0;"/></g><!--link Customer to CustomerName--><g id="link_Customer_CustomerName"><path codeLine="89" d="M570.46,95.42 C621.67,95.12 677.5301,94.7946 726.0901,94.5146 " fill="none" id="Customer-to-CustomerName" style="stroke:#181818;stroke-width:1.0;stroke-dasharray:7.0,7.0;"/><polygon fill="#181818" points="732.09,94.48,723.0671,90.532,727.0901,94.5088,723.1132,98.5318,732.09,94.48" style="stroke:#181818;stroke-width:1.0;"/></g><!--link Product to ProductType--><g id="link_Product_ProductType"><path codeLine="108" d="M576.94,1006 C628.48,1006 683.48,1006 730.7,1006 " fill="none" id="Product-to-ProductType" style="stroke:#181818;stroke-width:1.0;stroke-dasharray:7.0,7.0;"/><polygon fill="#181818" points="736.7,1006,727.7,1002,731.7,1006,727.7,1010,736.7,1006" style="stroke:#181818;stroke-width:1.0;"/></g><!--reverse link AccountTransaction to AccountTransactionStatus--><g id="link_AccountTransaction_AccountTransactionStatus"><path codeLine="135" d="M261.41,1219 C280.49,1219 288.63,1219 308.67,1219 " fill="none" id="AccountTransaction-backto-AccountTransactionStatus" style="stroke:#181818;stroke-width:1.0;"/><polygon fill="#181818" points="249.41,1219,255.41,1223,261.41,1219,255.41,1215,249.41,1219" style="stroke:#181818;stroke-width:1.0;"/></g><!--link AccountTransactionStatus to AccountTransactionStatusType--><g id="link_AccountTransactionStatus_AccountTransactionStatusType"><path codeLine="136" d="M633.49,1219 C653.38,1219 667.44,1219 686.59,1219 " fill="none" id="AccountTransactionStatus-to-AccountTransactionStatusType" style="stroke:#181818;stroke-width:1.0;stroke-dasharray:7.0,7.0;"/><polygon fill="#181818" points="692.59,1219,683.59,1215,687.59,1219,683.59,1223,692.59,1219" style="stroke:#181818;stroke-width:1.0;"/></g><!--reverse link Customer to AccountRole--><g id="link_Customer_AccountRole"><path codeLine="138" d="M565.3084,148.1156 C609.8384,172.9856 659.03,200.46 706.06,226.72 " fill="none" id="Customer-backto-AccountRole" style="stroke:#181818;stroke-width:1.0;"/><polygon fill="#181818" points="560.07,145.19,565.9771,153.0707,564.4353,147.628,569.878,146.0862,560.07,145.19" style="stroke:#181818;stroke-width:1.0;"/></g><!--reverse link Product to AccountProduct--><g id="link_Product_AccountProduct"><path codeLine="139" d="M582.1395,942.5557 C635.4495,911.8557 693.68,878.31 741.51,850.76 " fill="none" id="Product-backto-AccountProduct" style="stroke:#181818;stroke-width:1.0;"/><polygon fill="#181818" points="576.94,945.55,586.7354,944.5249,581.2729,943.0548,582.743,937.5923,576.94,945.55" style="stroke:#181818;stroke-width:1.0;"/></g><!--link AccountTransaction to Account--><g id="link_AccountTransaction_Account"><path codeLine="140" d="M176.73,1145.06 C240.91,1027.08 362.9126,802.8405 427.0226,685.0005 " fill="none" id="AccountTransaction-to-Account" style="stroke:#181818;stroke-width:1.0;"/><polygon fill="#181818" points="429.89,679.73,422.0753,685.7242,427.5005,684.1221,429.1026,689.5473,429.89,679.73" style="stroke:#181818;stroke-width:1.0;"/></g><!--SRC=[jLN1RkCW4Btp5TnMgcJdNaMHkjjBBwkgwGyGJ1ow1YmOhrIj-k_5DjXWGvAkKbyI-yqCCu-PDpzE0AsvtspQXaZeH5DI9JQq8SOK5IUr9WAXXXq1WyAQroV05TUC0bSIePRGFwHcc52gEWdu7yBs6RpnG_IjV-wytLE5x_4UD9Vr19Rbskvt9mvChsrd0o9O2gwOePgtVP9dl5_VszxxONwRR0x4qa5xzEVuRq0-qBg-8KXO8rKLkr1UDhtK0I-gOTUIQ4_l32Z1T1hLDbPSzOlx4XWTjHAF17gZ_YTL0fnqjpJ9vVxj1Es1G6UkfyWCzZ4D- -bRc8Kj3VZGOK_IUabOPfjFvzkhVjQgwYXSNtOxEgJ1MzovcvJ_6tWnQ8KTDru_Cie5QTm1zWYl97T54JOM2WUaB7UhbaxuZPU3uiu9V8C-yDu1celgxcA2b8MyRimYwKSpKibVySVBGnpHvWtpGYb7XVJ7z88PtjmYYq5Fjzk_fEaOLeStg_ExNPJQaMkJbLqRAuC9NbKDMsF3_KuSz5H7cKxSjL6tZqcd9k1CaqV4ERkBl7rrixYuJboUvxVrk0JW3ON27k5vwTaCCvZ814sa8SCAJstirnKSRyqPldQFfpKdI2CbFKo2VdV0KdvRPI03vPNaRANv9NAXtlG-MKM-oMf9HhrjyoHw812wLG8eosGecqaoa1UlSfh_hJt9iLw6Gk-cglITdR3p4XmqLPcefIXsIq-4FW40]--></g></svg>